<svg width="320" height="216" viewBox="0 0 320 216" fill="none" xmlns="http://www.w3.org/2000/svg">
<g id="drive-sw-new-button" clip-path="url(#clip0_2_28524)">
<rect id="border/bg" x="0.5" y="0.5" width="319" height="159" fill="white" stroke="#BDC1C6"/>
<g id="screen">
<path id="Stroke 205 Copy 3" d="M141.791 90.5852H294.183" stroke="#BDC1C6" stroke-linecap="round" stroke-linejoin="round"/>
<path id="Stroke 205 Copy 2" d="M141.791 114.585H294.183" stroke="#BDC1C6" stroke-linecap="round" stroke-linejoin="round"/>
<path id="Stroke 205 Copy 2_2" d="M141.791 138.585H294.957" stroke="#BDC1C6" stroke-linecap="round" stroke-linejoin="round"/>
<path id="Stroke 205 Copy 6" d="M141.791 66.5852H294.183" stroke="#BDC1C6" stroke-linecap="round" stroke-linejoin="round"/>
</g>
<g id="Drive FAB">
<rect width="49" height="27" transform="translate(13 50)" fill="white"/>
<rect id="Rectangle " x="13.5" y="50" width="48" height="27" rx="7" fill="white" stroke="#3C4043"/>
<path id="New" d="M32.4448 68V59.408H34.0048L37.8928 65.72H37.9648L37.8928 64.064V59.408H39.2008V68H37.8328L33.7528 61.364H33.6808L33.7528 63.02V68H32.4448ZM43.6204 68.192C43.0204 68.192 42.4844 68.052 42.0124 67.772C41.5404 67.492 41.1684 67.108 40.8964 66.62C40.6324 66.132 40.5004 65.576 40.5004 64.952C40.5004 64.368 40.6284 63.828 40.8844 63.332C41.1404 62.836 41.4964 62.44 41.9524 62.144C42.4164 61.84 42.9484 61.688 43.5484 61.688C44.1804 61.688 44.7164 61.824 45.1564 62.096C45.6044 62.368 45.9444 62.74 46.1764 63.212C46.4084 63.684 46.5244 64.216 46.5244 64.808C46.5244 64.896 46.5204 64.976 46.5124 65.048C46.5124 65.12 46.5084 65.176 46.5004 65.216H41.7724C41.8044 65.552 41.8884 65.844 42.0244 66.092C42.2004 66.404 42.4324 66.64 42.7204 66.8C43.0084 66.96 43.3204 67.04 43.6564 67.04C44.0644 67.04 44.4044 66.948 44.6764 66.764C44.9564 66.572 45.1764 66.336 45.3364 66.056L46.4044 66.572C46.1404 67.052 45.7804 67.444 45.3244 67.748C44.8684 68.044 44.3004 68.192 43.6204 68.192ZM41.8444 64.244H45.2404C45.2324 64.092 45.1924 63.932 45.1204 63.764C45.0484 63.588 44.9444 63.428 44.8084 63.284C44.6724 63.14 44.5004 63.024 44.2924 62.936C44.0844 62.84 43.8404 62.792 43.5604 62.792C43.2084 62.792 42.8964 62.884 42.6244 63.068C42.3524 63.244 42.1404 63.492 41.9884 63.812C41.9244 63.948 41.8764 64.092 41.8444 64.244ZM48.9109 68L46.9549 61.88H48.3589L49.6189 66.284H49.6669L51.0469 61.88H52.3789L53.7589 66.284H53.8069L55.0669 61.88H56.4469L54.4789 68H53.1229L51.7069 63.572H51.6589L50.2549 68H48.9109Z" fill="#3C4043"/>
<path id="Plus" d="M22.6154 68.5V63.8846H18V63.1154H22.6154V58.5H23.3846V63.1154H28V63.8846H23.3846V68.5H22.6154Z" fill="#3C4043" stroke="#3C4043" stroke-width="0.5"/>
</g>
<g id="Docs icon - illustrated" opacity="0.5">
<path id="Rectangle" fill-rule="evenodd" clip-rule="evenodd" d="M119.864 58.8636C119.864 57.7591 120.759 56.8636 121.864 56.8636H128.464L133.682 61.5865V71.9332C133.682 73.0377 132.786 73.9332 131.682 73.9332H121.864C120.759 73.9332 119.864 73.0377 119.864 71.9332V58.8636Z" fill="#4285F4" stroke="#3C4043"/>
<path id="Line 11" d="M122.708 67.8369H130.837" stroke="white" stroke-linecap="square"/>
<path id="Line 11_2" d="M122.708 65.3984H130.837" stroke="white" stroke-linecap="square"/>
<path id="Line 11_3" d="M122.708 70.2754H128.5" stroke="white" stroke-linecap="square"/>
<path id="Path 5" d="M133.261 62.0719C133.463 62.0719 133.645 61.9502 133.723 61.7635C133.8 61.5768 133.757 61.3618 133.615 61.2187L129.326 56.9211C129.183 56.7778 128.968 56.7349 128.781 56.8122C128.594 56.8895 128.472 57.0719 128.472 57.2742V61.5719C128.472 61.7045 128.525 61.8317 128.619 61.9255C128.713 62.0192 128.84 62.0719 128.972 62.0719H133.261Z" fill="#1967D2" stroke="#3C4043" stroke-linejoin="round"/>
</g>
<g id="Callout 1 ">
<g id="1">
<circle id="Oval" cx="16.5" cy="102.5" r="9.5" fill="#FBBC04"/>
<path id="1_2" d="M18.0901 107V97.424H17.0121L14.2401 99.412L15.0101 100.574L16.5781 99.454V107H18.0901Z" fill="#3C4043"/>
</g>
</g>
<circle id="Oval_2" cx="18" cy="158" r="11" fill="white"/>
<g id="Callout 2">
<g id="2">
<circle id="Oval_3" cx="17.5" cy="157.5" r="9.5" fill="#FBBC04"/>
<path id="2_2" d="M20.5462 162V160.628H16.3462L16.3322 160.586C16.6028 160.306 16.9995 159.909 17.5222 159.396C17.7275 159.191 17.9246 158.994 18.1135 158.805L18.9082 158.01C19.9255 156.993 20.4342 155.98 20.4342 154.972C20.4342 154.468 20.3058 154.006 20.0492 153.586C19.7925 153.166 19.4308 152.83 18.9642 152.578C18.4975 152.326 17.9608 152.2 17.3542 152.2C16.7942 152.2 16.2995 152.312 15.8702 152.536C15.4408 152.76 15.0978 153.035 14.8412 153.362C14.5845 153.689 14.4095 154.02 14.3162 154.356L15.6742 154.916C15.7768 154.571 15.9658 154.27 16.2412 154.013C16.5165 153.756 16.8782 153.628 17.3262 153.628C17.8115 153.628 18.1965 153.766 18.4812 154.041C18.7658 154.316 18.9082 154.641 18.9082 155.014C18.9082 155.378 18.8335 155.695 18.6842 155.966C18.5348 156.237 18.2548 156.587 17.8442 157.016C17.5199 157.375 16.798 158.116 15.6783 159.239L14.5872 160.33L14.3442 160.572V162H20.5462Z" fill="#3C4043"/>
</g>
</g>
<rect id="Rectangle Copy" x="38.5" y="74" width="135" height="141" fill="white" stroke="#3C4043"/>
<g id="Icons/arrow-expand-2">
<path id="Path 20" d="M156.692 148L161 151.231L156.692 155" stroke="#3C4043"/>
</g>
<g id="Icons/arrow-expand-2 Copy 2">
<path id="Path 20_2" d="M156.692 134.931L161 138.162L156.692 141.931" stroke="#3C4043"/>
</g>
<g id="Icons/arrow-expand-2 Copy">
<path id="Path 20_3" d="M156.692 176L161 179.231L156.692 183" stroke="#3C4043"/>
</g>
<g id="Icons/arrow-expand-2 Copy 3">
<path id="Path 20_4" d="M156.692 196L161 199.231L156.692 203" stroke="#3C4043"/>
</g>
<g id="Docs icon - illustrated_2">
<path id="Rectangle_2" fill-rule="evenodd" clip-rule="evenodd" d="M50.8636 129.864C50.8636 128.759 51.7591 127.864 52.8636 127.864H59.4644L64.6818 132.586V142.933C64.6818 144.038 63.7864 144.933 62.6818 144.933H52.8636C51.7591 144.933 50.8636 144.038 50.8636 142.933V129.864Z" fill="#4285F4" stroke="#3C4043"/>
<path id="Line 11_4" d="M53.7085 138.837H61.8368" stroke="white" stroke-linecap="square"/>
<path id="Line 11_5" d="M53.7085 136.398H61.8368" stroke="white" stroke-linecap="square"/>
<path id="Line 11_6" d="M53.7085 141.275H59.5001" stroke="white" stroke-linecap="square"/>
<path id="Path 5_2" d="M64.2607 133.072C64.4629 133.072 64.6451 132.95 64.7226 132.763C64.8 132.577 64.7575 132.362 64.6147 132.219L60.3262 127.921C60.1833 127.778 59.9682 127.735 59.7812 127.812C59.5942 127.89 59.4723 128.072 59.4723 128.274V132.572C59.4723 132.705 59.525 132.832 59.6187 132.925C59.7125 133.019 59.8397 133.072 59.9723 133.072H64.2607Z" fill="#1967D2" stroke="#3C4043" stroke-linejoin="round"/>
</g>
<g id="Slides icon - illustrated">
<path id="Rectangle_3" fill-rule="evenodd" clip-rule="evenodd" d="M50.4524 170.952C50.4524 169.848 51.3478 168.952 52.4524 168.952H59.7714L64.9286 173.9V184.835C64.9286 185.939 64.0332 186.835 62.9286 186.835H52.4524C51.3478 186.835 50.4524 185.939 50.4524 184.835V170.952Z" fill="#FBBC04" stroke="#3C4043"/>
<path id="Path 5_3" d="M64.4824 174.429C64.6845 174.429 64.8667 174.307 64.9442 174.12C65.0216 173.934 64.9792 173.719 64.8365 173.576L60.3489 169.073C60.206 168.93 59.9908 168.887 59.8038 168.964C59.6167 169.041 59.4948 169.224 59.4948 169.426V173.929C59.4948 174.061 59.5474 174.188 59.6412 174.282C59.735 174.376 59.8621 174.429 59.9948 174.429H64.4824Z" fill="#F29900" stroke="#3C4043" stroke-linejoin="round"/>
<rect id="Rectangle_4" x="53.6666" y="177.767" width="8.04762" height="5.24205" stroke="white"/>
</g>
<g id="Sheets icon - illustrated">
<path id="Rectangle_5" fill-rule="evenodd" clip-rule="evenodd" d="M50.4318 149.932C50.4318 148.827 51.3272 147.932 52.4318 147.932H59.9318L65.1136 152.95V164.068C65.1136 165.173 64.2181 166.068 63.1136 166.068H52.4318C51.3272 166.068 50.4318 165.173 50.4318 164.068V149.932Z" fill="#34A853" stroke="#3C4043"/>
<g id="Group">
<path id="Line 11_7" d="M53.4545 158.727H62.0908" stroke="white" stroke-linecap="square"/>
<rect id="Rectangle_6" x="53.0227" y="155.705" width="9.5" height="6.04545" stroke="white"/>
<path id="Line 12" d="M57.7728 156.136V161.318" stroke="white" stroke-linecap="square"/>
</g>
<path id="Path 5_4" d="M64.687 153.434C64.8894 153.434 65.0717 153.312 65.1491 153.125C65.2264 152.938 65.1834 152.723 65.0401 152.58L60.4629 148.014C60.3198 147.871 60.1048 147.829 59.9181 147.906C59.7314 147.984 59.6097 148.166 59.6097 148.368V152.934C59.6097 153.067 59.6624 153.194 59.7562 153.288C59.85 153.382 59.9771 153.434 60.1097 153.434H64.687Z" fill="#188038" stroke="#3C4043" stroke-linejoin="round"/>
</g>
<g id="drive_folder_upload_BASELINE_P900_FILL0_wght100_GRAD0_opsz48">
<g id="Shape">
<path fill-rule="evenodd" clip-rule="evenodd" d="M48.4009 118.977C48.6681 119.244 49 119.378 49.3966 119.378H64.6034C65 119.378 65.3319 119.244 65.5991 118.977C65.8664 118.709 66 118.378 66 117.981V108.826C66 108.429 65.8664 108.097 65.5991 107.83C65.3319 107.563 65 107.429 64.6034 107.429H57L56.1207 106.55H49.3966C49 106.55 48.6681 106.684 48.4009 106.951C48.1336 107.218 48 107.55 48 107.947V117.981C48 118.378 48.1336 118.709 48.4009 118.977ZM57.2845 111.283V116.584H56.7155V111.283L54.3362 113.662L53.9224 113.248L57 110.171L60.1293 113.3L59.7155 113.714L57.2845 111.283ZM49.3966 118.809H64.6034C64.8103 118.809 65 118.722 65.1724 118.55C65.3448 118.378 65.431 118.188 65.431 117.981V108.826C65.431 108.619 65.3448 108.429 65.1724 108.257C65 108.084 64.8103 107.998 64.6034 107.998H48.569V117.981C48.569 118.188 48.6552 118.378 48.8276 118.55C49 118.722 49.1897 118.809 49.3966 118.809Z" fill="#3C4043"/>
<path d="M57 107.429L56.8763 107.553L56.9275 107.604H57V107.429ZM56.1207 106.55L56.2444 106.426L56.1932 106.375H56.1207V106.55ZM57.2845 116.584V116.759H57.4595V116.584H57.2845ZM57.2845 111.283L57.4082 111.159L57.1095 110.86V111.283H57.2845ZM56.7155 116.584H56.5405V116.759H56.7155V116.584ZM56.7155 111.283H56.8905V110.86L56.5918 111.159L56.7155 111.283ZM54.3362 113.662L54.2125 113.786L54.3362 113.91L54.46 113.786L54.3362 113.662ZM53.9224 113.248L53.7987 113.125L53.6749 113.248L53.7987 113.372L53.9224 113.248ZM57 110.171L57.1237 110.047L57 109.923L56.8763 110.047L57 110.171ZM60.1293 113.3L60.2531 113.424L60.3768 113.3L60.2531 113.176L60.1293 113.3ZM59.7155 113.714L59.5918 113.838L59.7155 113.961L59.8393 113.838L59.7155 113.714ZM65.1724 118.55L65.2962 118.674L65.2962 118.674L65.1724 118.55ZM65.1724 108.257L65.2962 108.133V108.133L65.1724 108.257ZM48.569 107.998V107.823H48.394V107.998H48.569ZM49.3966 119.203C49.0439 119.203 48.7573 119.086 48.5246 118.853L48.2771 119.1C48.5789 119.402 48.9561 119.553 49.3966 119.553V119.203ZM64.6034 119.203H49.3966V119.553H64.6034V119.203ZM65.4754 118.853C65.2427 119.086 64.9561 119.203 64.6034 119.203V119.553C65.0439 119.553 65.4211 119.402 65.7229 119.1L65.4754 118.853ZM65.825 117.981C65.825 118.334 65.7081 118.62 65.4754 118.853L65.7229 119.1C66.0247 118.799 66.175 118.421 66.175 117.981H65.825ZM65.825 108.826V117.981H66.175V108.826H65.825ZM65.4754 107.954C65.7081 108.187 65.825 108.473 65.825 108.826H66.175C66.175 108.385 66.0247 108.008 65.7229 107.706L65.4754 107.954ZM64.6034 107.604C64.9561 107.604 65.2427 107.721 65.4754 107.954L65.7229 107.706C65.4211 107.405 65.0439 107.254 64.6034 107.254V107.604ZM57 107.604H64.6034V107.254H57V107.604ZM55.9969 106.674L56.8763 107.553L57.1237 107.306L56.2444 106.426L55.9969 106.674ZM49.3966 106.725H56.1207V106.375H49.3966V106.725ZM48.5246 107.075C48.7573 106.842 49.0439 106.725 49.3966 106.725V106.375C48.9561 106.375 48.5789 106.525 48.2771 106.827L48.5246 107.075ZM48.175 107.947C48.175 107.594 48.2919 107.307 48.5246 107.075L48.2771 106.827C47.9753 107.129 47.825 107.506 47.825 107.947H48.175ZM48.175 117.981V107.947H47.825V117.981H48.175ZM48.5246 118.853C48.2919 118.62 48.175 118.334 48.175 117.981H47.825C47.825 118.421 47.9753 118.799 48.2771 119.1L48.5246 118.853ZM57.4595 116.584V111.283H57.1095V116.584H57.4595ZM56.7155 116.759H57.2845V116.409H56.7155V116.759ZM56.5405 111.283V116.584H56.8905V111.283H56.5405ZM54.46 113.786L56.8393 111.406L56.5918 111.159L54.2125 113.538L54.46 113.786ZM53.7987 113.372L54.2125 113.786L54.46 113.538L54.0462 113.125L53.7987 113.372ZM56.8763 110.047L53.7987 113.125L54.0462 113.372L57.1237 110.294L56.8763 110.047ZM60.2531 113.176L57.1237 110.047L56.8763 110.294L60.0056 113.424L60.2531 113.176ZM59.8393 113.838L60.2531 113.424L60.0056 113.176L59.5918 113.59L59.8393 113.838ZM57.1607 111.406L59.5918 113.838L59.8393 113.59L57.4082 111.159L57.1607 111.406ZM64.6034 118.634H49.3966V118.984H64.6034V118.634ZM65.0487 118.426C64.9028 118.572 64.7557 118.634 64.6034 118.634V118.984C64.865 118.984 65.0972 118.873 65.2962 118.674L65.0487 118.426ZM65.256 117.981C65.256 118.133 65.1946 118.28 65.0487 118.426L65.2962 118.674C65.4951 118.475 65.606 118.243 65.606 117.981H65.256ZM65.256 108.826V117.981H65.606V108.826H65.256ZM65.0487 108.381C65.1946 108.527 65.256 108.674 65.256 108.826H65.606C65.606 108.564 65.4951 108.332 65.2962 108.133L65.0487 108.381ZM64.6034 108.173C64.7557 108.173 64.9028 108.235 65.0487 108.381L65.2962 108.133C65.0972 107.934 64.865 107.823 64.6034 107.823V108.173ZM48.569 108.173H64.6034V107.823H48.569V108.173ZM48.744 117.981V107.998H48.394V117.981H48.744ZM48.9513 118.426C48.8054 118.28 48.744 118.133 48.744 117.981H48.394C48.394 118.243 48.5049 118.475 48.7038 118.674L48.9513 118.426ZM49.3966 118.634C49.2443 118.634 49.0972 118.572 48.9513 118.426L48.7038 118.674C48.9028 118.873 49.135 118.984 49.3966 118.984V118.634Z" fill="#3C4043"/>
</g>
</g>
<g id="upload_file_BASELINE_T900_FILL0_wght100_GRAD0_opsz48">
<g id="Shape_2">
<path fill-rule="evenodd" clip-rule="evenodd" d="M50.4009 102.599C50.6681 102.866 51 103 51.3966 103H62.4655C62.8621 103 63.194 102.866 63.4612 102.599C63.7284 102.332 63.8621 102 63.8621 101.603V89.0345L59.8276 85H51.3966C51 85 50.6681 85.1336 50.4009 85.4009C50.1336 85.6681 50 86 50 86.3966V101.603C50 102 50.1336 102.332 50.4009 102.599ZM57.2414 99.5603H56.6724V94.2845L54.1638 96.7672L53.7759 96.3793L56.931 93.1983L60.1121 96.3534L59.6983 96.7672L57.2414 94.2845V99.5603ZM59.5431 89.2931V85.569H51.3966C51.1897 85.569 51 85.6552 50.8276 85.8276C50.6552 86 50.569 86.1897 50.569 86.3966V89.2931V101.603C50.569 101.81 50.6552 102 50.8276 102.172C51 102.345 51.1897 102.431 51.3966 102.431H62.4655C62.6724 102.431 62.8621 102.345 63.0345 102.172C63.2069 102 63.2931 101.81 63.2931 101.603V89.2931H59.5431Z" fill="#3C4043"/>
<path d="M63.8621 89.0345H64.0371V88.962L63.9858 88.9107L63.8621 89.0345ZM59.8276 85L59.9513 84.8763L59.9001 84.825H59.8276V85ZM56.6724 99.5603H56.4974V99.7353H56.6724V99.5603ZM57.2414 99.5603V99.7353H57.4164V99.5603H57.2414ZM56.6724 94.2845H56.8474V93.8651L56.5493 94.1601L56.6724 94.2845ZM54.1638 96.7672L54.04 96.891L54.1632 97.0141L54.2869 96.8916L54.1638 96.7672ZM53.7759 96.3793L53.6516 96.2561L53.5289 96.3798L53.6521 96.5031L53.7759 96.3793ZM56.931 93.1983L57.0543 93.074L56.93 92.9508L56.8068 93.075L56.931 93.1983ZM60.1121 96.3534L60.2358 96.4772L60.3601 96.3529L60.2353 96.2292L60.1121 96.3534ZM59.6983 96.7672L59.5739 96.8903L59.6976 97.0154L59.822 96.891L59.6983 96.7672ZM57.2414 94.2845L57.3658 94.1614L57.0664 93.8588V94.2845H57.2414ZM59.5431 85.569H59.7181V85.394H59.5431V85.569ZM59.5431 89.2931H59.3681V89.4681H59.5431V89.2931ZM50.8276 102.172L50.7038 102.296L50.7038 102.296L50.8276 102.172ZM63.0345 102.172L63.1582 102.296L63.1582 102.296L63.0345 102.172ZM63.2931 89.2931H63.4681V89.1181H63.2931V89.2931ZM51.3966 102.825C51.0439 102.825 50.7573 102.708 50.5246 102.475L50.2771 102.723C50.5789 103.025 50.9561 103.175 51.3966 103.175V102.825ZM62.4655 102.825H51.3966V103.175H62.4655V102.825ZM63.3375 102.475C63.1048 102.708 62.8182 102.825 62.4655 102.825V103.175C62.9059 103.175 63.2831 103.025 63.5849 102.723L63.3375 102.475ZM63.6871 101.603C63.6871 101.956 63.5701 102.243 63.3375 102.475L63.5849 102.723C63.8868 102.421 64.0371 102.044 64.0371 101.603H63.6871ZM63.6871 89.0345V101.603H64.0371V89.0345H63.6871ZM59.7038 85.1237L63.7383 89.1582L63.9858 88.9107L59.9513 84.8763L59.7038 85.1237ZM51.3966 85.175H59.8276V84.825H51.3966V85.175ZM50.5246 85.5246C50.7573 85.2919 51.0439 85.175 51.3966 85.175V84.825C50.9561 84.825 50.5789 84.9753 50.2771 85.2771L50.5246 85.5246ZM50.175 86.3966C50.175 86.0439 50.2919 85.7573 50.5246 85.5246L50.2771 85.2771C49.9753 85.5789 49.825 85.9561 49.825 86.3966H50.175ZM50.175 101.603V86.3966H49.825V101.603H50.175ZM50.5246 102.475C50.2919 102.243 50.175 101.956 50.175 101.603H49.825C49.825 102.044 49.9753 102.421 50.2771 102.723L50.5246 102.475ZM56.6724 99.7353H57.2414V99.3853H56.6724V99.7353ZM56.4974 94.2845V99.5603H56.8474V94.2845H56.4974ZM54.2869 96.8916L56.7955 94.4089L56.5493 94.1601L54.0407 96.6429L54.2869 96.8916ZM53.6521 96.5031L54.04 96.891L54.2875 96.6435L53.8996 96.2556L53.6521 96.5031ZM56.8068 93.075L53.6516 96.2561L53.9001 96.5025L57.0553 93.3215L56.8068 93.075ZM60.2353 96.2292L57.0543 93.074L56.8078 93.3225L59.9888 96.4777L60.2353 96.2292ZM59.822 96.891L60.2358 96.4772L59.9883 96.2297L59.5745 96.6435L59.822 96.891ZM57.117 94.4076L59.5739 96.8903L59.8227 96.6441L57.3658 94.1614L57.117 94.4076ZM57.4164 99.5603V94.2845H57.0664V99.5603H57.4164ZM59.3681 85.569V89.2931H59.7181V85.569H59.3681ZM51.3966 85.744H59.5431V85.394H51.3966V85.744ZM50.9513 85.9513C51.0972 85.8054 51.2443 85.744 51.3966 85.744V85.394C51.135 85.394 50.9028 85.5049 50.7038 85.7038L50.9513 85.9513ZM50.744 86.3966C50.744 86.2443 50.8054 86.0972 50.9513 85.9513L50.7038 85.7038C50.5049 85.9028 50.394 86.135 50.394 86.3966H50.744ZM50.744 89.2931V86.3966H50.394V89.2931H50.744ZM50.744 101.603V89.2931H50.394V101.603H50.744ZM50.9513 102.049C50.8054 101.903 50.744 101.756 50.744 101.603H50.394C50.394 101.865 50.5049 102.097 50.7038 102.296L50.9513 102.049ZM51.3966 102.256C51.2443 102.256 51.0972 102.195 50.9513 102.049L50.7038 102.296C50.9028 102.495 51.135 102.606 51.3966 102.606V102.256ZM62.4655 102.256H51.3966V102.606H62.4655V102.256ZM62.9107 102.049C62.7648 102.195 62.6178 102.256 62.4655 102.256V102.606C62.727 102.606 62.9593 102.495 63.1582 102.296L62.9107 102.049ZM63.1181 101.603C63.1181 101.756 63.0566 101.903 62.9107 102.049L63.1582 102.296C63.3572 102.097 63.4681 101.865 63.4681 101.603H63.1181ZM63.1181 89.2931V101.603H63.4681V89.2931H63.1181ZM59.5431 89.4681H63.2931V89.1181H59.5431V89.4681Z" fill="#3C4043"/>
</g>
</g>
<rect id="Rectangle_7" x="37" y="83" width="4" height="3" fill="white"/>
<rect id="Rectangle Copy 2" x="37" y="119" width="4" height="3" fill="white"/>
<rect id="Rectangle Copy 3" x="37" y="126" width="4" height="3" fill="white"/>
<rect id="Rectangle Copy 4" x="37" y="186" width="4" height="3" fill="white"/>
<path id="Line 9 Copy" d="M30.5 127.5V187.5" stroke="#FBBC04" stroke-width="1.5" stroke-linecap="square"/>
<path id="Line 9" d="M30.5 84.5V120.5" stroke="#FBBC04" stroke-width="1.5" stroke-linecap="square"/>
<path id="Line 9 Copy 3" d="M31.5 120.5H45.5" stroke="#FBBC04" stroke-width="1.5" stroke-linecap="round"/>
<path id="Line 9 Copy 6" d="M31.5 84.5H45.5" stroke="#FBBC04" stroke-width="1.5" stroke-linecap="round"/>
<path id="Line 9 Copy 4" d="M31.5 127.5H46.5" stroke="#FBBC04" stroke-width="1.5" stroke-linecap="round"/>
<path id="Line 9 Copy 5" d="M31.5 187.5H46.5" stroke="#FBBC04" stroke-width="1.5" stroke-linecap="round"/>
<path id="Text Copy 5" d="M72.924 202V194.124H74.266L76.62 200.548H76.664L79.029 194.124H80.36V202H79.447V196.995L79.491 195.521H79.447L77.027 202H76.257L73.837 195.521H73.793L73.837 196.995V202H72.924ZM84.4078 202.176C83.8432 202.176 83.3518 202.048 82.9338 201.791C82.5232 201.527 82.2042 201.164 81.9768 200.702C81.7495 200.24 81.6358 199.708 81.6358 199.107C81.6358 198.498 81.7495 197.967 81.9768 197.512C82.2042 197.05 82.5232 196.691 82.9338 196.434C83.3518 196.17 83.8432 196.038 84.4078 196.038C84.9725 196.038 85.4602 196.17 85.8708 196.434C86.2815 196.691 86.5968 197.05 86.8168 197.512C87.0442 197.967 87.1578 198.498 87.1578 199.107C87.1578 199.708 87.0442 200.24 86.8168 200.702C86.5968 201.164 86.2815 201.527 85.8708 201.791C85.4602 202.048 84.9725 202.176 84.4078 202.176ZM84.4078 201.329C84.7672 201.329 85.0825 201.241 85.3538 201.065C85.6325 200.889 85.8488 200.636 86.0028 200.306C86.1568 199.976 86.2338 199.576 86.2338 199.107C86.2338 198.638 86.1568 198.238 86.0028 197.908C85.8488 197.578 85.6325 197.325 85.3538 197.149C85.0825 196.973 84.7672 196.885 84.4078 196.885C84.0485 196.885 83.7295 196.973 83.4508 197.149C83.1722 197.325 82.9522 197.578 82.7908 197.908C82.6368 198.238 82.5598 198.638 82.5598 199.107C82.5598 199.576 82.6368 199.976 82.7908 200.306C82.9522 200.636 83.1722 200.889 83.4508 201.065C83.7295 201.241 84.0485 201.329 84.4078 201.329ZM88.3147 202V196.214H89.1947V197.017H89.2387C89.3121 196.826 89.4257 196.658 89.5797 196.511C89.7337 196.364 89.9097 196.251 90.1077 196.17C90.3131 196.089 90.5221 196.049 90.7347 196.049C90.8741 196.049 90.9877 196.056 91.0757 196.071C91.1637 196.086 91.2407 196.108 91.3067 196.137V197.116C91.2041 197.065 91.0941 197.028 90.9767 197.006C90.8594 196.984 90.7384 196.973 90.6137 196.973C90.3571 196.973 90.1224 197.046 89.9097 197.193C89.7044 197.34 89.5394 197.538 89.4147 197.787C89.2974 198.029 89.2387 198.297 89.2387 198.59V202H88.3147ZM94.4707 202.176C93.928 202.176 93.455 202.044 93.0517 201.78C92.6557 201.509 92.3477 201.142 92.1277 200.68C91.915 200.218 91.8087 199.697 91.8087 199.118C91.8087 198.524 91.9187 197.996 92.1387 197.534C92.366 197.065 92.6777 196.698 93.0737 196.434C93.477 196.17 93.939 196.038 94.4597 196.038C95.017 196.038 95.4863 196.148 95.8677 196.368C96.2563 196.588 96.5533 196.903 96.7587 197.314C96.964 197.717 97.0667 198.201 97.0667 198.766C97.0667 198.861 97.063 198.957 97.0557 199.052C97.0557 199.14 97.052 199.217 97.0447 199.283H92.7327C92.7473 199.679 92.8207 200.024 92.9527 200.317C93.0993 200.647 93.3047 200.9 93.5687 201.076C93.84 201.245 94.1517 201.329 94.5037 201.329C94.9657 201.329 95.314 201.234 95.5487 201.043C95.7907 200.845 95.9667 200.592 96.0767 200.284L96.8907 200.504C96.7733 200.973 96.513 201.369 96.1097 201.692C95.7137 202.015 95.1673 202.176 94.4707 202.176ZM92.7767 198.513H96.0987C96.0913 198.264 96.051 198.04 95.9777 197.842C95.9117 197.637 95.809 197.464 95.6697 197.325C95.5377 197.178 95.369 197.068 95.1637 196.995C94.9657 196.914 94.731 196.874 94.4597 196.874C94.115 196.874 93.8107 196.962 93.5467 197.138C93.29 197.307 93.092 197.556 92.9527 197.886C92.872 198.069 92.8133 198.278 92.7767 198.513Z" fill="#3C4043"/>
<path id="Text Copy 4" d="M75.059 181.676C74.531 181.676 74.0507 181.581 73.618 181.39C73.1853 181.192 72.8113 180.91 72.496 180.543C72.188 180.176 71.9497 179.744 71.781 179.245C71.6123 178.739 71.528 178.178 71.528 177.562C71.528 176.946 71.616 176.389 71.792 175.89C71.9753 175.384 72.2283 174.948 72.551 174.581C72.881 174.214 73.2623 173.936 73.695 173.745C74.135 173.547 74.6117 173.448 75.125 173.448C75.9757 173.448 76.6797 173.65 77.237 174.053C77.7943 174.449 78.15 174.988 78.304 175.67L77.424 175.912C77.3433 175.597 77.2003 175.322 76.995 175.087C76.797 174.852 76.5403 174.669 76.225 174.537C75.9097 174.405 75.5467 174.339 75.136 174.339C74.7767 174.339 74.4357 174.409 74.113 174.548C73.7903 174.687 73.5043 174.893 73.255 175.164C73.013 175.435 72.8223 175.773 72.683 176.176C72.5437 176.579 72.474 177.041 72.474 177.562C72.474 178.083 72.54 178.545 72.672 178.948C72.8113 179.344 72.9983 179.681 73.233 179.96C73.475 180.231 73.7537 180.437 74.069 180.576C74.3843 180.715 74.718 180.785 75.07 180.785C75.444 180.785 75.7777 180.726 76.071 180.609C76.3643 180.484 76.6137 180.312 76.819 180.092C77.0317 179.872 77.1967 179.619 77.314 179.333C77.4387 179.047 77.5157 178.739 77.545 178.409H75.125V177.551H78.436V181.5H77.578V180.268H77.534C77.4387 180.459 77.314 180.638 77.16 180.807C77.006 180.976 76.8227 181.126 76.61 181.258C76.4047 181.39 76.17 181.493 75.906 181.566C75.6493 181.639 75.367 181.676 75.059 181.676ZM82.2799 181.676C81.7152 181.676 81.2239 181.548 80.8059 181.291C80.3952 181.027 80.0762 180.664 79.8489 180.202C79.6216 179.74 79.5079 179.208 79.5079 178.607C79.5079 177.998 79.6216 177.467 79.8489 177.012C80.0762 176.55 80.3952 176.191 80.8059 175.934C81.2239 175.67 81.7152 175.538 82.2799 175.538C82.8446 175.538 83.3322 175.67 83.7429 175.934C84.1536 176.191 84.4689 176.55 84.6889 177.012C84.9162 177.467 85.0299 177.998 85.0299 178.607C85.0299 179.208 84.9162 179.74 84.6889 180.202C84.4689 180.664 84.1536 181.027 83.7429 181.291C83.3322 181.548 82.8446 181.676 82.2799 181.676ZM82.2799 180.829C82.6392 180.829 82.9546 180.741 83.2259 180.565C83.5046 180.389 83.7209 180.136 83.8749 179.806C84.0289 179.476 84.1059 179.076 84.1059 178.607C84.1059 178.138 84.0289 177.738 83.8749 177.408C83.7209 177.078 83.5046 176.825 83.2259 176.649C82.9546 176.473 82.6392 176.385 82.2799 176.385C81.9206 176.385 81.6016 176.473 81.3229 176.649C81.0442 176.825 80.8242 177.078 80.6629 177.408C80.5089 177.738 80.4319 178.138 80.4319 178.607C80.4319 179.076 80.5089 179.476 80.6629 179.806C80.8242 180.136 81.0442 180.389 81.3229 180.565C81.6016 180.741 81.9206 180.829 82.2799 180.829ZM88.7252 181.676C88.1605 181.676 87.6692 181.548 87.2512 181.291C86.8405 181.027 86.5215 180.664 86.2942 180.202C86.0669 179.74 85.9532 179.208 85.9532 178.607C85.9532 177.998 86.0669 177.467 86.2942 177.012C86.5215 176.55 86.8405 176.191 87.2512 175.934C87.6692 175.67 88.1605 175.538 88.7252 175.538C89.2899 175.538 89.7775 175.67 90.1882 175.934C90.5989 176.191 90.9142 176.55 91.1342 177.012C91.3615 177.467 91.4752 177.998 91.4752 178.607C91.4752 179.208 91.3615 179.74 91.1342 180.202C90.9142 180.664 90.5989 181.027 90.1882 181.291C89.7775 181.548 89.2899 181.676 88.7252 181.676ZM88.7252 180.829C89.0845 180.829 89.3999 180.741 89.6712 180.565C89.9499 180.389 90.1662 180.136 90.3202 179.806C90.4742 179.476 90.5512 179.076 90.5512 178.607C90.5512 178.138 90.4742 177.738 90.3202 177.408C90.1662 177.078 89.9499 176.825 89.6712 176.649C89.3999 176.473 89.0845 176.385 88.7252 176.385C88.3659 176.385 88.0469 176.473 87.7682 176.649C87.4895 176.825 87.2695 177.078 87.1082 177.408C86.9542 177.738 86.8772 178.138 86.8772 178.607C86.8772 179.076 86.9542 179.476 87.1082 179.806C87.2695 180.136 87.4895 180.389 87.7682 180.565C88.0469 180.741 88.3659 180.829 88.7252 180.829ZM95.0605 184.052C94.6205 184.052 94.2319 183.971 93.8945 183.81C93.5572 183.656 93.2822 183.451 93.0695 183.194C92.8569 182.937 92.7175 182.655 92.6515 182.347L93.5205 182.127C93.6159 182.428 93.7919 182.681 94.0485 182.886C94.3052 183.099 94.6425 183.205 95.0605 183.205C95.6325 183.205 96.0579 183.033 96.3365 182.688C96.6225 182.351 96.7655 181.885 96.7655 181.291V180.422H96.7215C96.5455 180.737 96.3035 180.99 95.9955 181.181C95.6875 181.364 95.3025 181.456 94.8405 181.456C94.4005 181.456 93.9935 181.342 93.6195 181.115C93.2529 180.888 92.9559 180.554 92.7285 180.114C92.5085 179.674 92.3985 179.135 92.3985 178.497C92.3985 177.852 92.5085 177.313 92.7285 176.88C92.9559 176.44 93.2602 176.106 93.6415 175.879C94.0229 175.652 94.4445 175.538 94.9065 175.538C95.3245 175.538 95.6912 175.63 96.0065 175.813C96.3219 175.989 96.5602 176.216 96.7215 176.495H96.7655V175.714H97.6455V181.302C97.6455 181.925 97.5319 182.439 97.3045 182.842C97.0845 183.253 96.7802 183.557 96.3915 183.755C96.0029 183.953 95.5592 184.052 95.0605 184.052ZM95.0495 180.609C95.3649 180.609 95.6509 180.532 95.9075 180.378C96.1642 180.224 96.3695 179.993 96.5235 179.685C96.6849 179.37 96.7655 178.974 96.7655 178.497C96.7655 178.02 96.6849 177.628 96.5235 177.32C96.3695 177.005 96.1642 176.77 95.9075 176.616C95.6509 176.462 95.3649 176.385 95.0495 176.385C94.7415 176.385 94.4555 176.462 94.1915 176.616C93.9275 176.77 93.7149 177.005 93.5535 177.32C93.3922 177.628 93.3115 178.02 93.3115 178.497C93.3115 178.974 93.3922 179.37 93.5535 179.685C93.7149 179.993 93.9275 180.224 94.1915 180.378C94.4555 180.532 94.7415 180.609 95.0495 180.609ZM99.2385 181.5V172.964H100.163V181.5H99.2385ZM104.041 181.676C103.498 181.676 103.025 181.544 102.622 181.28C102.226 181.009 101.918 180.642 101.698 180.18C101.485 179.718 101.379 179.197 101.379 178.618C101.379 178.024 101.489 177.496 101.709 177.034C101.936 176.565 102.248 176.198 102.644 175.934C103.047 175.67 103.509 175.538 104.03 175.538C104.587 175.538 105.057 175.648 105.438 175.868C105.827 176.088 106.124 176.403 106.329 176.814C106.534 177.217 106.637 177.701 106.637 178.266C106.637 178.361 106.633 178.457 106.626 178.552C106.626 178.64 106.622 178.717 106.615 178.783H102.303C102.318 179.179 102.391 179.524 102.523 179.817C102.67 180.147 102.875 180.4 103.139 180.576C103.41 180.745 103.722 180.829 104.074 180.829C104.536 180.829 104.884 180.734 105.119 180.543C105.361 180.345 105.537 180.092 105.647 179.784L106.461 180.004C106.344 180.473 106.083 180.869 105.68 181.192C105.284 181.515 104.738 181.676 104.041 181.676ZM102.347 178.013H105.669C105.662 177.764 105.621 177.54 105.548 177.342C105.482 177.137 105.379 176.964 105.24 176.825C105.108 176.678 104.939 176.568 104.734 176.495C104.536 176.414 104.301 176.374 104.03 176.374C103.685 176.374 103.381 176.462 103.117 176.638C102.86 176.807 102.662 177.056 102.523 177.386C102.442 177.569 102.384 177.778 102.347 178.013ZM112.919 181.676C112.421 181.676 111.966 181.584 111.555 181.401C111.152 181.218 110.818 180.95 110.554 180.598C110.29 180.246 110.114 179.817 110.026 179.311L110.972 179.102C111.053 179.593 111.255 179.997 111.577 180.312C111.907 180.627 112.362 180.785 112.941 180.785C113.293 180.785 113.601 180.73 113.865 180.62C114.137 180.503 114.346 180.341 114.492 180.136C114.646 179.923 114.723 179.678 114.723 179.399C114.723 179.12 114.657 178.893 114.525 178.717C114.401 178.541 114.21 178.391 113.953 178.266C113.697 178.134 113.374 178.009 112.985 177.892L112.38 177.705C112.087 177.617 111.812 177.514 111.555 177.397C111.299 177.272 111.071 177.126 110.873 176.957C110.683 176.788 110.532 176.587 110.422 176.352C110.32 176.117 110.268 175.842 110.268 175.527C110.268 175.138 110.378 174.79 110.598 174.482C110.818 174.167 111.123 173.917 111.511 173.734C111.907 173.543 112.358 173.448 112.864 173.448C113.414 173.448 113.873 173.543 114.239 173.734C114.613 173.925 114.899 174.178 115.097 174.493C115.303 174.801 115.42 175.138 115.449 175.505L114.569 175.637C114.518 175.373 114.423 175.146 114.283 174.955C114.144 174.757 113.957 174.607 113.722 174.504C113.495 174.394 113.213 174.339 112.875 174.339C112.567 174.339 112.285 174.39 112.028 174.493C111.779 174.588 111.577 174.724 111.423 174.9C111.277 175.076 111.203 175.281 111.203 175.516C111.203 175.846 111.346 176.114 111.632 176.319C111.926 176.524 112.34 176.711 112.875 176.88L113.48 177.067C113.759 177.155 114.027 177.258 114.283 177.375C114.547 177.492 114.782 177.643 114.987 177.826C115.193 178.002 115.354 178.218 115.471 178.475C115.596 178.724 115.658 179.032 115.658 179.399C115.658 179.758 115.589 180.081 115.449 180.367C115.31 180.646 115.116 180.884 114.866 181.082C114.617 181.28 114.324 181.427 113.986 181.522C113.656 181.625 113.301 181.676 112.919 181.676ZM116.985 181.5V172.964H117.909V181.5H116.985ZM119.509 181.5V175.714H120.433V181.5H119.509ZM119.971 174.306C119.787 174.306 119.63 174.24 119.498 174.108C119.366 173.976 119.3 173.818 119.3 173.635C119.3 173.444 119.366 173.287 119.498 173.162C119.63 173.03 119.787 172.964 119.971 172.964C120.161 172.964 120.319 173.03 120.444 173.162C120.576 173.287 120.642 173.444 120.642 173.635C120.642 173.818 120.576 173.976 120.444 174.108C120.319 174.24 120.161 174.306 119.971 174.306ZM124.213 181.676C123.692 181.676 123.238 181.548 122.849 181.291C122.46 181.027 122.16 180.664 121.947 180.202C121.734 179.74 121.628 179.208 121.628 178.607C121.628 177.998 121.734 177.467 121.947 177.012C122.16 176.55 122.457 176.191 122.838 175.934C123.227 175.67 123.681 175.538 124.202 175.538C124.495 175.538 124.763 175.586 125.005 175.681C125.247 175.769 125.456 175.886 125.632 176.033C125.808 176.18 125.944 176.337 126.039 176.506H126.083L126.039 175.714V172.964H126.963V181.5H126.083V180.686H126.039C125.944 180.855 125.808 181.016 125.632 181.17C125.456 181.324 125.247 181.445 125.005 181.533C124.77 181.628 124.506 181.676 124.213 181.676ZM124.312 180.829C124.664 180.829 124.972 180.745 125.236 180.576C125.5 180.407 125.705 180.158 125.852 179.828C126.006 179.491 126.083 179.084 126.083 178.607C126.083 178.123 126.006 177.716 125.852 177.386C125.705 177.056 125.5 176.807 125.236 176.638C124.972 176.469 124.664 176.385 124.312 176.385C123.967 176.385 123.659 176.469 123.388 176.638C123.124 176.807 122.919 177.056 122.772 177.386C122.625 177.716 122.552 178.123 122.552 178.607C122.552 179.084 122.625 179.491 122.772 179.828C122.919 180.158 123.124 180.407 123.388 180.576C123.659 180.745 123.967 180.829 124.312 180.829ZM130.832 181.676C130.289 181.676 129.816 181.544 129.413 181.28C129.017 181.009 128.709 180.642 128.489 180.18C128.276 179.718 128.17 179.197 128.17 178.618C128.17 178.024 128.28 177.496 128.5 177.034C128.727 176.565 129.039 176.198 129.435 175.934C129.838 175.67 130.3 175.538 130.821 175.538C131.378 175.538 131.848 175.648 132.229 175.868C132.618 176.088 132.915 176.403 133.12 176.814C133.325 177.217 133.428 177.701 133.428 178.266C133.428 178.361 133.424 178.457 133.417 178.552C133.417 178.64 133.413 178.717 133.406 178.783H129.094C129.109 179.179 129.182 179.524 129.314 179.817C129.461 180.147 129.666 180.4 129.93 180.576C130.201 180.745 130.513 180.829 130.865 180.829C131.327 180.829 131.675 180.734 131.91 180.543C132.152 180.345 132.328 180.092 132.438 179.784L133.252 180.004C133.135 180.473 132.874 180.869 132.471 181.192C132.075 181.515 131.529 181.676 130.832 181.676ZM129.138 178.013H132.46C132.453 177.764 132.412 177.54 132.339 177.342C132.273 177.137 132.17 176.964 132.031 176.825C131.899 176.678 131.73 176.568 131.525 176.495C131.327 176.414 131.092 176.374 130.821 176.374C130.476 176.374 130.172 176.462 129.908 176.638C129.651 176.807 129.453 177.056 129.314 177.386C129.233 177.569 129.175 177.778 129.138 178.013ZM136.699 181.676C136.303 181.676 135.933 181.61 135.588 181.478C135.244 181.339 134.958 181.141 134.73 180.884C134.51 180.62 134.378 180.301 134.334 179.927L135.225 179.773C135.284 180.066 135.438 180.319 135.687 180.532C135.937 180.745 136.274 180.851 136.699 180.851C137.066 180.851 137.378 180.774 137.634 180.62C137.891 180.459 138.019 180.231 138.019 179.938C138.019 179.762 137.975 179.612 137.887 179.487C137.799 179.355 137.667 179.245 137.491 179.157C137.323 179.069 137.106 179.003 136.842 178.959L136.127 178.827C135.805 178.768 135.515 178.669 135.258 178.53C135.009 178.391 134.811 178.211 134.664 177.991C134.525 177.764 134.455 177.492 134.455 177.177C134.455 176.847 134.551 176.561 134.741 176.319C134.939 176.07 135.2 175.879 135.522 175.747C135.852 175.608 136.212 175.538 136.6 175.538C136.952 175.538 137.279 175.593 137.579 175.703C137.887 175.806 138.144 175.974 138.349 176.209C138.562 176.436 138.694 176.741 138.745 177.122L137.887 177.254C137.814 176.931 137.656 176.704 137.414 176.572C137.18 176.433 136.908 176.363 136.6 176.363C136.263 176.363 135.977 176.436 135.742 176.583C135.508 176.722 135.39 176.917 135.39 177.166C135.39 177.386 135.478 177.566 135.654 177.705C135.83 177.844 136.109 177.954 136.49 178.035L137.304 178.2C137.825 178.303 138.228 178.493 138.514 178.772C138.8 179.043 138.943 179.421 138.943 179.905C138.943 180.264 138.844 180.576 138.646 180.84C138.448 181.104 138.181 181.309 137.843 181.456C137.506 181.603 137.125 181.676 136.699 181.676Z" fill="#3C4043"/>
<path id="Text Copy 3" d="M75.059 160.676C74.531 160.676 74.0507 160.581 73.618 160.39C73.1853 160.192 72.8113 159.91 72.496 159.543C72.188 159.176 71.9497 158.744 71.781 158.245C71.6123 157.739 71.528 157.178 71.528 156.562C71.528 155.946 71.616 155.389 71.792 154.89C71.9753 154.384 72.2283 153.948 72.551 153.581C72.881 153.214 73.2623 152.936 73.695 152.745C74.135 152.547 74.6117 152.448 75.125 152.448C75.9757 152.448 76.6797 152.65 77.237 153.053C77.7943 153.449 78.15 153.988 78.304 154.67L77.424 154.912C77.3433 154.597 77.2003 154.322 76.995 154.087C76.797 153.852 76.5403 153.669 76.225 153.537C75.9097 153.405 75.5467 153.339 75.136 153.339C74.7767 153.339 74.4357 153.409 74.113 153.548C73.7903 153.687 73.5043 153.893 73.255 154.164C73.013 154.435 72.8223 154.773 72.683 155.176C72.5437 155.579 72.474 156.041 72.474 156.562C72.474 157.083 72.54 157.545 72.672 157.948C72.8113 158.344 72.9983 158.681 73.233 158.96C73.475 159.231 73.7537 159.437 74.069 159.576C74.3843 159.715 74.718 159.785 75.07 159.785C75.444 159.785 75.7777 159.726 76.071 159.609C76.3643 159.484 76.6137 159.312 76.819 159.092C77.0317 158.872 77.1967 158.619 77.314 158.333C77.4387 158.047 77.5157 157.739 77.545 157.409H75.125V156.551H78.436V160.5H77.578V159.268H77.534C77.4387 159.459 77.314 159.638 77.16 159.807C77.006 159.976 76.8227 160.126 76.61 160.258C76.4047 160.39 76.17 160.493 75.906 160.566C75.6493 160.639 75.367 160.676 75.059 160.676ZM82.2799 160.676C81.7152 160.676 81.2239 160.548 80.8059 160.291C80.3952 160.027 80.0762 159.664 79.8489 159.202C79.6216 158.74 79.5079 158.208 79.5079 157.607C79.5079 156.998 79.6216 156.467 79.8489 156.012C80.0762 155.55 80.3952 155.191 80.8059 154.934C81.2239 154.67 81.7152 154.538 82.2799 154.538C82.8446 154.538 83.3322 154.67 83.7429 154.934C84.1536 155.191 84.4689 155.55 84.6889 156.012C84.9162 156.467 85.0299 156.998 85.0299 157.607C85.0299 158.208 84.9162 158.74 84.6889 159.202C84.4689 159.664 84.1536 160.027 83.7429 160.291C83.3322 160.548 82.8446 160.676 82.2799 160.676ZM82.2799 159.829C82.6392 159.829 82.9546 159.741 83.2259 159.565C83.5046 159.389 83.7209 159.136 83.8749 158.806C84.0289 158.476 84.1059 158.076 84.1059 157.607C84.1059 157.138 84.0289 156.738 83.8749 156.408C83.7209 156.078 83.5046 155.825 83.2259 155.649C82.9546 155.473 82.6392 155.385 82.2799 155.385C81.9206 155.385 81.6016 155.473 81.3229 155.649C81.0442 155.825 80.8242 156.078 80.6629 156.408C80.5089 156.738 80.4319 157.138 80.4319 157.607C80.4319 158.076 80.5089 158.476 80.6629 158.806C80.8242 159.136 81.0442 159.389 81.3229 159.565C81.6016 159.741 81.9206 159.829 82.2799 159.829ZM88.7252 160.676C88.1605 160.676 87.6692 160.548 87.2512 160.291C86.8405 160.027 86.5215 159.664 86.2942 159.202C86.0669 158.74 85.9532 158.208 85.9532 157.607C85.9532 156.998 86.0669 156.467 86.2942 156.012C86.5215 155.55 86.8405 155.191 87.2512 154.934C87.6692 154.67 88.1605 154.538 88.7252 154.538C89.2899 154.538 89.7775 154.67 90.1882 154.934C90.5989 155.191 90.9142 155.55 91.1342 156.012C91.3615 156.467 91.4752 156.998 91.4752 157.607C91.4752 158.208 91.3615 158.74 91.1342 159.202C90.9142 159.664 90.5989 160.027 90.1882 160.291C89.7775 160.548 89.2899 160.676 88.7252 160.676ZM88.7252 159.829C89.0845 159.829 89.3999 159.741 89.6712 159.565C89.9499 159.389 90.1662 159.136 90.3202 158.806C90.4742 158.476 90.5512 158.076 90.5512 157.607C90.5512 157.138 90.4742 156.738 90.3202 156.408C90.1662 156.078 89.9499 155.825 89.6712 155.649C89.3999 155.473 89.0845 155.385 88.7252 155.385C88.3659 155.385 88.0469 155.473 87.7682 155.649C87.4895 155.825 87.2695 156.078 87.1082 156.408C86.9542 156.738 86.8772 157.138 86.8772 157.607C86.8772 158.076 86.9542 158.476 87.1082 158.806C87.2695 159.136 87.4895 159.389 87.7682 159.565C88.0469 159.741 88.3659 159.829 88.7252 159.829ZM95.0605 163.052C94.6205 163.052 94.2319 162.971 93.8945 162.81C93.5572 162.656 93.2822 162.451 93.0695 162.194C92.8569 161.937 92.7175 161.655 92.6515 161.347L93.5205 161.127C93.6159 161.428 93.7919 161.681 94.0485 161.886C94.3052 162.099 94.6425 162.205 95.0605 162.205C95.6325 162.205 96.0579 162.033 96.3365 161.688C96.6225 161.351 96.7655 160.885 96.7655 160.291V159.422H96.7215C96.5455 159.737 96.3035 159.99 95.9955 160.181C95.6875 160.364 95.3025 160.456 94.8405 160.456C94.4005 160.456 93.9935 160.342 93.6195 160.115C93.2529 159.888 92.9559 159.554 92.7285 159.114C92.5085 158.674 92.3985 158.135 92.3985 157.497C92.3985 156.852 92.5085 156.313 92.7285 155.88C92.9559 155.44 93.2602 155.106 93.6415 154.879C94.0229 154.652 94.4445 154.538 94.9065 154.538C95.3245 154.538 95.6912 154.63 96.0065 154.813C96.3219 154.989 96.5602 155.216 96.7215 155.495H96.7655V154.714H97.6455V160.302C97.6455 160.925 97.5319 161.439 97.3045 161.842C97.0845 162.253 96.7802 162.557 96.3915 162.755C96.0029 162.953 95.5592 163.052 95.0605 163.052ZM95.0495 159.609C95.3649 159.609 95.6509 159.532 95.9075 159.378C96.1642 159.224 96.3695 158.993 96.5235 158.685C96.6849 158.37 96.7655 157.974 96.7655 157.497C96.7655 157.02 96.6849 156.628 96.5235 156.32C96.3695 156.005 96.1642 155.77 95.9075 155.616C95.6509 155.462 95.3649 155.385 95.0495 155.385C94.7415 155.385 94.4555 155.462 94.1915 155.616C93.9275 155.77 93.7149 156.005 93.5535 156.32C93.3922 156.628 93.3115 157.02 93.3115 157.497C93.3115 157.974 93.3922 158.37 93.5535 158.685C93.7149 158.993 93.9275 159.224 94.1915 159.378C94.4555 159.532 94.7415 159.609 95.0495 159.609ZM99.2385 160.5V151.964H100.163V160.5H99.2385ZM104.041 160.676C103.498 160.676 103.025 160.544 102.622 160.28C102.226 160.009 101.918 159.642 101.698 159.18C101.485 158.718 101.379 158.197 101.379 157.618C101.379 157.024 101.489 156.496 101.709 156.034C101.936 155.565 102.248 155.198 102.644 154.934C103.047 154.67 103.509 154.538 104.03 154.538C104.587 154.538 105.057 154.648 105.438 154.868C105.827 155.088 106.124 155.403 106.329 155.814C106.534 156.217 106.637 156.701 106.637 157.266C106.637 157.361 106.633 157.457 106.626 157.552C106.626 157.64 106.622 157.717 106.615 157.783H102.303C102.318 158.179 102.391 158.524 102.523 158.817C102.67 159.147 102.875 159.4 103.139 159.576C103.41 159.745 103.722 159.829 104.074 159.829C104.536 159.829 104.884 159.734 105.119 159.543C105.361 159.345 105.537 159.092 105.647 158.784L106.461 159.004C106.344 159.473 106.083 159.869 105.68 160.192C105.284 160.515 104.738 160.676 104.041 160.676ZM102.347 157.013H105.669C105.662 156.764 105.621 156.54 105.548 156.342C105.482 156.137 105.379 155.964 105.24 155.825C105.108 155.678 104.939 155.568 104.734 155.495C104.536 155.414 104.301 155.374 104.03 155.374C103.685 155.374 103.381 155.462 103.117 155.638C102.86 155.807 102.662 156.056 102.523 156.386C102.442 156.569 102.384 156.778 102.347 157.013ZM112.919 160.676C112.421 160.676 111.966 160.584 111.555 160.401C111.152 160.218 110.818 159.95 110.554 159.598C110.29 159.246 110.114 158.817 110.026 158.311L110.972 158.102C111.053 158.593 111.255 158.997 111.577 159.312C111.907 159.627 112.362 159.785 112.941 159.785C113.293 159.785 113.601 159.73 113.865 159.62C114.137 159.503 114.346 159.341 114.492 159.136C114.646 158.923 114.723 158.678 114.723 158.399C114.723 158.12 114.657 157.893 114.525 157.717C114.401 157.541 114.21 157.391 113.953 157.266C113.697 157.134 113.374 157.009 112.985 156.892L112.38 156.705C112.087 156.617 111.812 156.514 111.555 156.397C111.299 156.272 111.071 156.126 110.873 155.957C110.683 155.788 110.532 155.587 110.422 155.352C110.32 155.117 110.268 154.842 110.268 154.527C110.268 154.138 110.378 153.79 110.598 153.482C110.818 153.167 111.123 152.917 111.511 152.734C111.907 152.543 112.358 152.448 112.864 152.448C113.414 152.448 113.873 152.543 114.239 152.734C114.613 152.925 114.899 153.178 115.097 153.493C115.303 153.801 115.42 154.138 115.449 154.505L114.569 154.637C114.518 154.373 114.423 154.146 114.283 153.955C114.144 153.757 113.957 153.607 113.722 153.504C113.495 153.394 113.213 153.339 112.875 153.339C112.567 153.339 112.285 153.39 112.028 153.493C111.779 153.588 111.577 153.724 111.423 153.9C111.277 154.076 111.203 154.281 111.203 154.516C111.203 154.846 111.346 155.114 111.632 155.319C111.926 155.524 112.34 155.711 112.875 155.88L113.48 156.067C113.759 156.155 114.027 156.258 114.283 156.375C114.547 156.492 114.782 156.643 114.987 156.826C115.193 157.002 115.354 157.218 115.471 157.475C115.596 157.724 115.658 158.032 115.658 158.399C115.658 158.758 115.589 159.081 115.449 159.367C115.31 159.646 115.116 159.884 114.866 160.082C114.617 160.28 114.324 160.427 113.986 160.522C113.656 160.625 113.301 160.676 112.919 160.676ZM116.985 160.5V151.964H117.909V154.714L117.865 155.506H117.909C118.055 155.242 118.29 155.015 118.613 154.824C118.935 154.633 119.309 154.538 119.735 154.538C120.182 154.538 120.556 154.63 120.857 154.813C121.157 154.996 121.385 155.249 121.539 155.572C121.7 155.895 121.781 156.269 121.781 156.694V160.5H120.857V156.771C120.857 156.478 120.802 156.228 120.692 156.023C120.582 155.818 120.424 155.66 120.219 155.55C120.013 155.44 119.768 155.385 119.482 155.385C119.181 155.385 118.91 155.466 118.668 155.627C118.433 155.788 118.246 156.001 118.107 156.265C117.975 156.529 117.909 156.822 117.909 157.145V160.5H116.985ZM125.654 160.676C125.112 160.676 124.639 160.544 124.235 160.28C123.839 160.009 123.531 159.642 123.311 159.18C123.099 158.718 122.992 158.197 122.992 157.618C122.992 157.024 123.102 156.496 123.322 156.034C123.55 155.565 123.861 155.198 124.257 154.934C124.661 154.67 125.123 154.538 125.643 154.538C126.201 154.538 126.67 154.648 127.051 154.868C127.44 155.088 127.737 155.403 127.942 155.814C128.148 156.217 128.25 156.701 128.25 157.266C128.25 157.361 128.247 157.457 128.239 157.552C128.239 157.64 128.236 157.717 128.228 157.783H123.916C123.931 158.179 124.004 158.524 124.136 158.817C124.283 159.147 124.488 159.4 124.752 159.576C125.024 159.745 125.335 159.829 125.687 159.829C126.149 159.829 126.498 159.734 126.732 159.543C126.974 159.345 127.15 159.092 127.26 158.784L128.074 159.004C127.957 159.473 127.697 159.869 127.293 160.192C126.897 160.515 126.351 160.676 125.654 160.676ZM123.96 157.013H127.282C127.275 156.764 127.235 156.54 127.161 156.342C127.095 156.137 126.993 155.964 126.853 155.825C126.721 155.678 126.553 155.568 126.347 155.495C126.149 155.414 125.915 155.374 125.643 155.374C125.299 155.374 124.994 155.462 124.73 155.638C124.474 155.807 124.276 156.056 124.136 156.386C124.056 156.569 123.997 156.778 123.96 157.013ZM131.885 160.676C131.342 160.676 130.869 160.544 130.466 160.28C130.07 160.009 129.762 159.642 129.542 159.18C129.329 158.718 129.223 158.197 129.223 157.618C129.223 157.024 129.333 156.496 129.553 156.034C129.78 155.565 130.092 155.198 130.488 154.934C130.891 154.67 131.353 154.538 131.874 154.538C132.431 154.538 132.9 154.648 133.282 154.868C133.67 155.088 133.967 155.403 134.173 155.814C134.378 156.217 134.481 156.701 134.481 157.266C134.481 157.361 134.477 157.457 134.47 157.552C134.47 157.64 134.466 157.717 134.459 157.783H130.147C130.161 158.179 130.235 158.524 130.367 158.817C130.513 159.147 130.719 159.4 130.983 159.576C131.254 159.745 131.566 159.829 131.918 159.829C132.38 159.829 132.728 159.734 132.963 159.543C133.205 159.345 133.381 159.092 133.491 158.784L134.305 159.004C134.187 159.473 133.927 159.869 133.524 160.192C133.128 160.515 132.581 160.676 131.885 160.676ZM130.191 157.013H133.513C133.505 156.764 133.465 156.54 133.392 156.342C133.326 156.137 133.223 155.964 133.084 155.825C132.952 155.678 132.783 155.568 132.578 155.495C132.38 155.414 132.145 155.374 131.874 155.374C131.529 155.374 131.225 155.462 130.961 155.638C130.704 155.807 130.506 156.056 130.367 156.386C130.286 156.569 130.227 156.778 130.191 157.013ZM135.128 154.714H136.041V153.13H136.965V154.714H138.274V155.561H136.965V158.839C136.965 159.118 137.028 159.334 137.152 159.488C137.277 159.642 137.464 159.719 137.713 159.719C137.838 159.719 137.944 159.704 138.032 159.675C138.128 159.646 138.216 159.605 138.296 159.554V160.456C138.201 160.493 138.098 160.522 137.988 160.544C137.878 160.573 137.735 160.588 137.559 160.588C137.105 160.588 136.738 160.452 136.459 160.181C136.181 159.902 136.041 159.517 136.041 159.026V155.561H135.128V154.714ZM141.609 160.676C141.213 160.676 140.842 160.61 140.498 160.478C140.153 160.339 139.867 160.141 139.64 159.884C139.42 159.62 139.288 159.301 139.244 158.927L140.135 158.773C140.193 159.066 140.347 159.319 140.597 159.532C140.846 159.745 141.183 159.851 141.609 159.851C141.975 159.851 142.287 159.774 142.544 159.62C142.8 159.459 142.929 159.231 142.929 158.938C142.929 158.762 142.885 158.612 142.797 158.487C142.709 158.355 142.577 158.245 142.401 158.157C142.232 158.069 142.016 158.003 141.752 157.959L141.037 157.827C140.714 157.768 140.424 157.669 140.168 157.53C139.918 157.391 139.72 157.211 139.574 156.991C139.434 156.764 139.365 156.492 139.365 156.177C139.365 155.847 139.46 155.561 139.651 155.319C139.849 155.07 140.109 154.879 140.432 154.747C140.762 154.608 141.121 154.538 141.51 154.538C141.862 154.538 142.188 154.593 142.489 154.703C142.797 154.806 143.053 154.974 143.259 155.209C143.471 155.436 143.603 155.741 143.655 156.122L142.797 156.254C142.723 155.931 142.566 155.704 142.324 155.572C142.089 155.433 141.818 155.363 141.51 155.363C141.172 155.363 140.886 155.436 140.652 155.583C140.417 155.722 140.3 155.917 140.3 156.166C140.3 156.386 140.388 156.566 140.564 156.705C140.74 156.844 141.018 156.954 141.4 157.035L142.214 157.2C142.734 157.303 143.138 157.493 143.424 157.772C143.71 158.043 143.853 158.421 143.853 158.905C143.853 159.264 143.754 159.576 143.556 159.84C143.358 160.104 143.09 160.309 142.753 160.456C142.415 160.603 142.034 160.676 141.609 160.676Z" fill="#3C4043"/>
<path id="Text Copy 2" d="M75.059 139.176C74.531 139.176 74.0507 139.081 73.618 138.89C73.1853 138.692 72.8113 138.41 72.496 138.043C72.188 137.676 71.9497 137.244 71.781 136.745C71.6123 136.239 71.528 135.678 71.528 135.062C71.528 134.446 71.616 133.889 71.792 133.39C71.9753 132.884 72.2283 132.448 72.551 132.081C72.881 131.714 73.2623 131.436 73.695 131.245C74.135 131.047 74.6117 130.948 75.125 130.948C75.9757 130.948 76.6797 131.15 77.237 131.553C77.7943 131.949 78.15 132.488 78.304 133.17L77.424 133.412C77.3433 133.097 77.2003 132.822 76.995 132.587C76.797 132.352 76.5403 132.169 76.225 132.037C75.9097 131.905 75.5467 131.839 75.136 131.839C74.7767 131.839 74.4357 131.909 74.113 132.048C73.7903 132.187 73.5043 132.393 73.255 132.664C73.013 132.935 72.8223 133.273 72.683 133.676C72.5437 134.079 72.474 134.541 72.474 135.062C72.474 135.583 72.54 136.045 72.672 136.448C72.8113 136.844 72.9983 137.181 73.233 137.46C73.475 137.731 73.7537 137.937 74.069 138.076C74.3843 138.215 74.718 138.285 75.07 138.285C75.444 138.285 75.7777 138.226 76.071 138.109C76.3643 137.984 76.6137 137.812 76.819 137.592C77.0317 137.372 77.1967 137.119 77.314 136.833C77.4387 136.547 77.5157 136.239 77.545 135.909H75.125V135.051H78.436V139H77.578V137.768H77.534C77.4387 137.959 77.314 138.138 77.16 138.307C77.006 138.476 76.8227 138.626 76.61 138.758C76.4047 138.89 76.17 138.993 75.906 139.066C75.6493 139.139 75.367 139.176 75.059 139.176ZM82.2799 139.176C81.7152 139.176 81.2239 139.048 80.8059 138.791C80.3952 138.527 80.0762 138.164 79.8489 137.702C79.6216 137.24 79.5079 136.708 79.5079 136.107C79.5079 135.498 79.6216 134.967 79.8489 134.512C80.0762 134.05 80.3952 133.691 80.8059 133.434C81.2239 133.17 81.7152 133.038 82.2799 133.038C82.8446 133.038 83.3322 133.17 83.7429 133.434C84.1536 133.691 84.4689 134.05 84.6889 134.512C84.9162 134.967 85.0299 135.498 85.0299 136.107C85.0299 136.708 84.9162 137.24 84.6889 137.702C84.4689 138.164 84.1536 138.527 83.7429 138.791C83.3322 139.048 82.8446 139.176 82.2799 139.176ZM82.2799 138.329C82.6392 138.329 82.9546 138.241 83.2259 138.065C83.5046 137.889 83.7209 137.636 83.8749 137.306C84.0289 136.976 84.1059 136.576 84.1059 136.107C84.1059 135.638 84.0289 135.238 83.8749 134.908C83.7209 134.578 83.5046 134.325 83.2259 134.149C82.9546 133.973 82.6392 133.885 82.2799 133.885C81.9206 133.885 81.6016 133.973 81.3229 134.149C81.0442 134.325 80.8242 134.578 80.6629 134.908C80.5089 135.238 80.4319 135.638 80.4319 136.107C80.4319 136.576 80.5089 136.976 80.6629 137.306C80.8242 137.636 81.0442 137.889 81.3229 138.065C81.6016 138.241 81.9206 138.329 82.2799 138.329ZM88.7252 139.176C88.1605 139.176 87.6692 139.048 87.2512 138.791C86.8405 138.527 86.5215 138.164 86.2942 137.702C86.0669 137.24 85.9532 136.708 85.9532 136.107C85.9532 135.498 86.0669 134.967 86.2942 134.512C86.5215 134.05 86.8405 133.691 87.2512 133.434C87.6692 133.17 88.1605 133.038 88.7252 133.038C89.2899 133.038 89.7775 133.17 90.1882 133.434C90.5989 133.691 90.9142 134.05 91.1342 134.512C91.3615 134.967 91.4752 135.498 91.4752 136.107C91.4752 136.708 91.3615 137.24 91.1342 137.702C90.9142 138.164 90.5989 138.527 90.1882 138.791C89.7775 139.048 89.2899 139.176 88.7252 139.176ZM88.7252 138.329C89.0845 138.329 89.3999 138.241 89.6712 138.065C89.9499 137.889 90.1662 137.636 90.3202 137.306C90.4742 136.976 90.5512 136.576 90.5512 136.107C90.5512 135.638 90.4742 135.238 90.3202 134.908C90.1662 134.578 89.9499 134.325 89.6712 134.149C89.3999 133.973 89.0845 133.885 88.7252 133.885C88.3659 133.885 88.0469 133.973 87.7682 134.149C87.4895 134.325 87.2695 134.578 87.1082 134.908C86.9542 135.238 86.8772 135.638 86.8772 136.107C86.8772 136.576 86.9542 136.976 87.1082 137.306C87.2695 137.636 87.4895 137.889 87.7682 138.065C88.0469 138.241 88.3659 138.329 88.7252 138.329ZM95.0605 141.552C94.6205 141.552 94.2319 141.471 93.8945 141.31C93.5572 141.156 93.2822 140.951 93.0695 140.694C92.8569 140.437 92.7175 140.155 92.6515 139.847L93.5205 139.627C93.6159 139.928 93.7919 140.181 94.0485 140.386C94.3052 140.599 94.6425 140.705 95.0605 140.705C95.6325 140.705 96.0579 140.533 96.3365 140.188C96.6225 139.851 96.7655 139.385 96.7655 138.791V137.922H96.7215C96.5455 138.237 96.3035 138.49 95.9955 138.681C95.6875 138.864 95.3025 138.956 94.8405 138.956C94.4005 138.956 93.9935 138.842 93.6195 138.615C93.2529 138.388 92.9559 138.054 92.7285 137.614C92.5085 137.174 92.3985 136.635 92.3985 135.997C92.3985 135.352 92.5085 134.813 92.7285 134.38C92.9559 133.94 93.2602 133.606 93.6415 133.379C94.0229 133.152 94.4445 133.038 94.9065 133.038C95.3245 133.038 95.6912 133.13 96.0065 133.313C96.3219 133.489 96.5602 133.716 96.7215 133.995H96.7655V133.214H97.6455V138.802C97.6455 139.425 97.5319 139.939 97.3045 140.342C97.0845 140.753 96.7802 141.057 96.3915 141.255C96.0029 141.453 95.5592 141.552 95.0605 141.552ZM95.0495 138.109C95.3649 138.109 95.6509 138.032 95.9075 137.878C96.1642 137.724 96.3695 137.493 96.5235 137.185C96.6849 136.87 96.7655 136.474 96.7655 135.997C96.7655 135.52 96.6849 135.128 96.5235 134.82C96.3695 134.505 96.1642 134.27 95.9075 134.116C95.6509 133.962 95.3649 133.885 95.0495 133.885C94.7415 133.885 94.4555 133.962 94.1915 134.116C93.9275 134.27 93.7149 134.505 93.5535 134.82C93.3922 135.128 93.3115 135.52 93.3115 135.997C93.3115 136.474 93.3922 136.87 93.5535 137.185C93.7149 137.493 93.9275 137.724 94.1915 137.878C94.4555 138.032 94.7415 138.109 95.0495 138.109ZM99.2385 139V130.464H100.163V139H99.2385ZM104.041 139.176C103.498 139.176 103.025 139.044 102.622 138.78C102.226 138.509 101.918 138.142 101.698 137.68C101.485 137.218 101.379 136.697 101.379 136.118C101.379 135.524 101.489 134.996 101.709 134.534C101.936 134.065 102.248 133.698 102.644 133.434C103.047 133.17 103.509 133.038 104.03 133.038C104.587 133.038 105.057 133.148 105.438 133.368C105.827 133.588 106.124 133.903 106.329 134.314C106.534 134.717 106.637 135.201 106.637 135.766C106.637 135.861 106.633 135.957 106.626 136.052C106.626 136.14 106.622 136.217 106.615 136.283H102.303C102.318 136.679 102.391 137.024 102.523 137.317C102.67 137.647 102.875 137.9 103.139 138.076C103.41 138.245 103.722 138.329 104.074 138.329C104.536 138.329 104.884 138.234 105.119 138.043C105.361 137.845 105.537 137.592 105.647 137.284L106.461 137.504C106.344 137.973 106.083 138.369 105.68 138.692C105.284 139.015 104.738 139.176 104.041 139.176ZM102.347 135.513H105.669C105.662 135.264 105.621 135.04 105.548 134.842C105.482 134.637 105.379 134.464 105.24 134.325C105.108 134.178 104.939 134.068 104.734 133.995C104.536 133.914 104.301 133.874 104.03 133.874C103.685 133.874 103.381 133.962 103.117 134.138C102.86 134.307 102.662 134.556 102.523 134.886C102.442 135.069 102.384 135.278 102.347 135.513ZM110.832 139V131.124H113.461C114.224 131.124 114.873 131.282 115.408 131.597C115.944 131.905 116.351 132.352 116.629 132.939C116.915 133.526 117.058 134.233 117.058 135.062C117.058 135.891 116.915 136.598 116.629 137.185C116.351 137.772 115.944 138.223 115.408 138.538C114.873 138.846 114.224 139 113.461 139H110.832ZM111.767 138.109H113.45C114.008 138.109 114.484 138.003 114.88 137.79C115.276 137.57 115.581 137.236 115.793 136.789C116.013 136.342 116.123 135.766 116.123 135.062C116.123 134.358 116.013 133.782 115.793 133.335C115.581 132.88 115.276 132.547 114.88 132.334C114.484 132.121 114.008 132.015 113.45 132.015H111.767V138.109ZM120.662 139.176C120.097 139.176 119.606 139.048 119.188 138.791C118.777 138.527 118.458 138.164 118.231 137.702C118.003 137.24 117.89 136.708 117.89 136.107C117.89 135.498 118.003 134.967 118.231 134.512C118.458 134.05 118.777 133.691 119.188 133.434C119.606 133.17 120.097 133.038 120.662 133.038C121.226 133.038 121.714 133.17 122.125 133.434C122.535 133.691 122.851 134.05 123.071 134.512C123.298 134.967 123.412 135.498 123.412 136.107C123.412 136.708 123.298 137.24 123.071 137.702C122.851 138.164 122.535 138.527 122.125 138.791C121.714 139.048 121.226 139.176 120.662 139.176ZM120.662 138.329C121.021 138.329 121.336 138.241 121.608 138.065C121.886 137.889 122.103 137.636 122.257 137.306C122.411 136.976 122.488 136.576 122.488 136.107C122.488 135.638 122.411 135.238 122.257 134.908C122.103 134.578 121.886 134.325 121.608 134.149C121.336 133.973 121.021 133.885 120.662 133.885C120.302 133.885 119.983 133.973 119.705 134.149C119.426 134.325 119.206 134.578 119.045 134.908C118.891 135.238 118.814 135.638 118.814 136.107C118.814 136.576 118.891 136.976 119.045 137.306C119.206 137.636 119.426 137.889 119.705 138.065C119.983 138.241 120.302 138.329 120.662 138.329ZM127.03 139.176C126.487 139.176 126.014 139.051 125.611 138.802C125.208 138.545 124.892 138.186 124.665 137.724C124.445 137.262 124.335 136.723 124.335 136.107C124.335 135.484 124.452 134.945 124.687 134.49C124.922 134.028 125.244 133.672 125.655 133.423C126.066 133.166 126.535 133.038 127.063 133.038C127.76 133.038 128.317 133.218 128.735 133.577C129.153 133.929 129.402 134.384 129.483 134.941L128.592 135.095C128.519 134.743 128.35 134.453 128.086 134.226C127.829 133.999 127.485 133.885 127.052 133.885C126.7 133.885 126.388 133.973 126.117 134.149C125.853 134.318 125.644 134.567 125.49 134.897C125.336 135.227 125.259 135.63 125.259 136.107C125.259 136.576 125.336 136.98 125.49 137.317C125.644 137.647 125.853 137.9 126.117 138.076C126.388 138.245 126.7 138.329 127.052 138.329C127.463 138.329 127.793 138.23 128.042 138.032C128.291 137.827 128.475 137.526 128.592 137.13L129.439 137.339C129.307 137.889 129.036 138.333 128.625 138.67C128.222 139.007 127.69 139.176 127.03 139.176ZM132.671 139.176C132.275 139.176 131.905 139.11 131.56 138.978C131.215 138.839 130.929 138.641 130.702 138.384C130.482 138.12 130.35 137.801 130.306 137.427L131.197 137.273C131.256 137.566 131.41 137.819 131.659 138.032C131.908 138.245 132.246 138.351 132.671 138.351C133.038 138.351 133.349 138.274 133.606 138.12C133.863 137.959 133.991 137.731 133.991 137.438C133.991 137.262 133.947 137.112 133.859 136.987C133.771 136.855 133.639 136.745 133.463 136.657C133.294 136.569 133.078 136.503 132.814 136.459L132.099 136.327C131.776 136.268 131.487 136.169 131.23 136.03C130.981 135.891 130.783 135.711 130.636 135.491C130.497 135.264 130.427 134.992 130.427 134.677C130.427 134.347 130.522 134.061 130.713 133.819C130.911 133.57 131.171 133.379 131.494 133.247C131.824 133.108 132.183 133.038 132.572 133.038C132.924 133.038 133.25 133.093 133.551 133.203C133.859 133.306 134.116 133.474 134.321 133.709C134.534 133.936 134.666 134.241 134.717 134.622L133.859 134.754C133.786 134.431 133.628 134.204 133.386 134.072C133.151 133.933 132.88 133.863 132.572 133.863C132.235 133.863 131.949 133.936 131.714 134.083C131.479 134.222 131.362 134.417 131.362 134.666C131.362 134.886 131.45 135.066 131.626 135.205C131.802 135.344 132.081 135.454 132.462 135.535L133.276 135.7C133.797 135.803 134.2 135.993 134.486 136.272C134.772 136.543 134.915 136.921 134.915 137.405C134.915 137.764 134.816 138.076 134.618 138.34C134.42 138.604 134.152 138.809 133.815 138.956C133.478 139.103 133.096 139.176 132.671 139.176Z" fill="#3C4043"/>
<path id="Text Copy 8" d="M71.924 118V110.124H76.665V111.015H72.859V113.71H76.335V114.59H72.859V118H71.924ZM80.0026 118.176C79.4379 118.176 78.9466 118.048 78.5286 117.791C78.1179 117.527 77.7989 117.164 77.5716 116.702C77.3442 116.24 77.2306 115.708 77.2306 115.107C77.2306 114.498 77.3442 113.967 77.5716 113.512C77.7989 113.05 78.1179 112.691 78.5286 112.434C78.9466 112.17 79.4379 112.038 80.0026 112.038C80.5672 112.038 81.0549 112.17 81.4656 112.434C81.8762 112.691 82.1916 113.05 82.4116 113.512C82.6389 113.967 82.7526 114.498 82.7526 115.107C82.7526 115.708 82.6389 116.24 82.4116 116.702C82.1916 117.164 81.8762 117.527 81.4656 117.791C81.0549 118.048 80.5672 118.176 80.0026 118.176ZM80.0026 117.329C80.3619 117.329 80.6772 117.241 80.9486 117.065C81.2272 116.889 81.4436 116.636 81.5976 116.306C81.7516 115.976 81.8286 115.576 81.8286 115.107C81.8286 114.638 81.7516 114.238 81.5976 113.908C81.4436 113.578 81.2272 113.325 80.9486 113.149C80.6772 112.973 80.3619 112.885 80.0026 112.885C79.6432 112.885 79.3242 112.973 79.0456 113.149C78.7669 113.325 78.5469 113.578 78.3856 113.908C78.2316 114.238 78.1546 114.638 78.1546 115.107C78.1546 115.576 78.2316 115.976 78.3856 116.306C78.5469 116.636 78.7669 116.889 79.0456 117.065C79.3242 117.241 79.6432 117.329 80.0026 117.329ZM83.9632 118V109.464H84.8872V118H83.9632ZM88.6886 118.176C88.1679 118.176 87.7133 118.048 87.3246 117.791C86.9359 117.527 86.6353 117.164 86.4226 116.702C86.2099 116.24 86.1036 115.708 86.1036 115.107C86.1036 114.498 86.2099 113.967 86.4226 113.512C86.6353 113.05 86.9323 112.691 87.3136 112.434C87.7023 112.17 88.1569 112.038 88.6776 112.038C88.9709 112.038 89.2386 112.086 89.4806 112.181C89.7226 112.269 89.9316 112.386 90.1076 112.533C90.2836 112.68 90.4193 112.837 90.5146 113.006H90.5586L90.5146 112.214V109.464H91.4386V118H90.5586V117.186H90.5146C90.4193 117.355 90.2836 117.516 90.1076 117.67C89.9316 117.824 89.7226 117.945 89.4806 118.033C89.2459 118.128 88.9819 118.176 88.6886 118.176ZM88.7876 117.329C89.1396 117.329 89.4476 117.245 89.7116 117.076C89.9756 116.907 90.1809 116.658 90.3276 116.328C90.4816 115.991 90.5586 115.584 90.5586 115.107C90.5586 114.623 90.4816 114.216 90.3276 113.886C90.1809 113.556 89.9756 113.307 89.7116 113.138C89.4476 112.969 89.1396 112.885 88.7876 112.885C88.4429 112.885 88.1349 112.969 87.8636 113.138C87.5996 113.307 87.3943 113.556 87.2476 113.886C87.1009 114.216 87.0276 114.623 87.0276 115.107C87.0276 115.584 87.1009 115.991 87.2476 116.328C87.3943 116.658 87.5996 116.907 87.8636 117.076C88.1349 117.245 88.4429 117.329 88.7876 117.329ZM95.3076 118.176C94.7649 118.176 94.2919 118.044 93.8886 117.78C93.4926 117.509 93.1846 117.142 92.9646 116.68C92.7519 116.218 92.6456 115.697 92.6456 115.118C92.6456 114.524 92.7556 113.996 92.9756 113.534C93.2029 113.065 93.5146 112.698 93.9106 112.434C94.3139 112.17 94.7759 112.038 95.2966 112.038C95.8539 112.038 96.3233 112.148 96.7046 112.368C97.0933 112.588 97.3903 112.903 97.5956 113.314C97.8009 113.717 97.9036 114.201 97.9036 114.766C97.9036 114.861 97.8999 114.957 97.8926 115.052C97.8926 115.14 97.8889 115.217 97.8816 115.283H93.5696C93.5843 115.679 93.6576 116.024 93.7896 116.317C93.9363 116.647 94.1416 116.9 94.4056 117.076C94.6769 117.245 94.9886 117.329 95.3406 117.329C95.8026 117.329 96.1509 117.234 96.3856 117.043C96.6276 116.845 96.8036 116.592 96.9136 116.284L97.7276 116.504C97.6103 116.973 97.3499 117.369 96.9466 117.692C96.5506 118.015 96.0043 118.176 95.3076 118.176ZM93.6136 114.513H96.9356C96.9283 114.264 96.8879 114.04 96.8146 113.842C96.7486 113.637 96.6459 113.464 96.5066 113.325C96.3746 113.178 96.2059 113.068 96.0006 112.995C95.8026 112.914 95.5679 112.874 95.2966 112.874C94.9519 112.874 94.6476 112.962 94.3836 113.138C94.1269 113.307 93.9289 113.556 93.7896 113.886C93.7089 114.069 93.6503 114.278 93.6136 114.513ZM99.1634 118V112.214H100.043V113.017H100.087C100.161 112.826 100.274 112.658 100.428 112.511C100.582 112.364 100.758 112.251 100.956 112.17C101.162 112.089 101.371 112.049 101.583 112.049C101.723 112.049 101.836 112.056 101.924 112.071C102.012 112.086 102.089 112.108 102.155 112.137V113.116C102.053 113.065 101.943 113.028 101.825 113.006C101.708 112.984 101.587 112.973 101.462 112.973C101.206 112.973 100.971 113.046 100.758 113.193C100.553 113.34 100.388 113.538 100.263 113.787C100.146 114.029 100.087 114.297 100.087 114.59V118H99.1634ZM108.126 118.176C107.48 118.176 106.982 117.985 106.63 117.604C106.278 117.223 106.102 116.706 106.102 116.053V112.214H107.026V115.932C107.026 116.438 107.15 116.797 107.4 117.01C107.656 117.223 107.972 117.329 108.346 117.329C108.661 117.329 108.929 117.256 109.149 117.109C109.369 116.955 109.537 116.753 109.655 116.504C109.779 116.255 109.842 115.983 109.842 115.69V112.214H110.766V118H109.886V117.241H109.842C109.754 117.417 109.625 117.578 109.457 117.725C109.288 117.864 109.09 117.974 108.863 118.055C108.635 118.136 108.39 118.176 108.126 118.176ZM112.376 120.376V112.214H113.256V113.061H113.3C113.403 112.878 113.542 112.709 113.718 112.555C113.902 112.401 114.114 112.276 114.356 112.181C114.606 112.086 114.866 112.038 115.137 112.038C115.658 112.038 116.113 112.166 116.501 112.423C116.89 112.68 117.191 113.039 117.403 113.501C117.616 113.963 117.722 114.498 117.722 115.107C117.722 115.716 117.612 116.251 117.392 116.713C117.18 117.175 116.879 117.534 116.49 117.791C116.109 118.048 115.658 118.176 115.137 118.176C114.69 118.176 114.309 118.084 113.993 117.901C113.678 117.71 113.447 117.49 113.3 117.241H113.256L113.3 118V120.376H112.376ZM115.038 117.329C115.383 117.329 115.687 117.245 115.951 117.076C116.215 116.907 116.421 116.658 116.567 116.328C116.721 115.991 116.798 115.584 116.798 115.107C116.798 114.623 116.721 114.216 116.567 113.886C116.421 113.556 116.215 113.307 115.951 113.138C115.687 112.969 115.383 112.885 115.038 112.885C114.694 112.885 114.386 112.969 114.114 113.138C113.85 113.307 113.641 113.556 113.487 113.886C113.333 114.216 113.256 114.623 113.256 115.107C113.256 115.584 113.333 115.991 113.487 116.328C113.641 116.658 113.85 116.907 114.114 117.076C114.386 117.245 114.694 117.329 115.038 117.329ZM118.875 118V109.464H119.799V118H118.875ZM123.788 118.176C123.223 118.176 122.732 118.048 122.314 117.791C121.903 117.527 121.584 117.164 121.357 116.702C121.129 116.24 121.016 115.708 121.016 115.107C121.016 114.498 121.129 113.967 121.357 113.512C121.584 113.05 121.903 112.691 122.314 112.434C122.732 112.17 123.223 112.038 123.788 112.038C124.352 112.038 124.84 112.17 125.251 112.434C125.661 112.691 125.977 113.05 126.197 113.512C126.424 113.967 126.538 114.498 126.538 115.107C126.538 115.708 126.424 116.24 126.197 116.702C125.977 117.164 125.661 117.527 125.251 117.791C124.84 118.048 124.352 118.176 123.788 118.176ZM123.788 117.329C124.147 117.329 124.462 117.241 124.734 117.065C125.012 116.889 125.229 116.636 125.383 116.306C125.537 115.976 125.614 115.576 125.614 115.107C125.614 114.638 125.537 114.238 125.383 113.908C125.229 113.578 125.012 113.325 124.734 113.149C124.462 112.973 124.147 112.885 123.788 112.885C123.428 112.885 123.109 112.973 122.831 113.149C122.552 113.325 122.332 113.578 122.171 113.908C122.017 114.238 121.94 114.638 121.94 115.107C121.94 115.576 122.017 115.976 122.171 116.306C122.332 116.636 122.552 116.889 122.831 117.065C123.109 117.241 123.428 117.329 123.788 117.329ZM129.551 118.176C129.155 118.176 128.807 118.103 128.506 117.956C128.205 117.809 127.971 117.604 127.802 117.34C127.633 117.069 127.549 116.75 127.549 116.383C127.549 115.994 127.648 115.672 127.846 115.415C128.051 115.151 128.319 114.953 128.649 114.821C128.986 114.689 129.349 114.623 129.738 114.623C129.965 114.623 130.174 114.634 130.365 114.656C130.563 114.671 130.75 114.696 130.926 114.733C131.109 114.77 131.285 114.817 131.454 114.876V114.238C131.454 113.82 131.315 113.49 131.036 113.248C130.757 112.999 130.402 112.874 129.969 112.874C129.588 112.874 129.272 112.962 129.023 113.138C128.774 113.307 128.601 113.56 128.506 113.897L127.67 113.688C127.736 113.343 127.875 113.05 128.088 112.808C128.301 112.559 128.568 112.368 128.891 112.236C129.221 112.104 129.58 112.038 129.969 112.038C130.724 112.038 131.307 112.229 131.718 112.61C132.136 112.991 132.345 113.527 132.345 114.216V118H131.454V117.241H131.41C131.307 117.388 131.172 117.534 131.003 117.681C130.834 117.828 130.629 117.945 130.387 118.033C130.152 118.128 129.874 118.176 129.551 118.176ZM129.716 117.362C130.053 117.362 130.35 117.289 130.607 117.142C130.871 116.995 131.076 116.794 131.223 116.537C131.377 116.273 131.454 115.98 131.454 115.657C131.183 115.554 130.922 115.481 130.673 115.437C130.424 115.393 130.167 115.371 129.903 115.371C129.485 115.371 129.144 115.452 128.88 115.613C128.623 115.767 128.495 116.024 128.495 116.383C128.495 116.676 128.609 116.915 128.836 117.098C129.071 117.274 129.364 117.362 129.716 117.362ZM136.072 118.176C135.552 118.176 135.097 118.048 134.708 117.791C134.32 117.527 134.019 117.164 133.806 116.702C133.594 116.24 133.487 115.708 133.487 115.107C133.487 114.498 133.594 113.967 133.806 113.512C134.019 113.05 134.316 112.691 134.697 112.434C135.086 112.17 135.541 112.038 136.061 112.038C136.355 112.038 136.622 112.086 136.864 112.181C137.106 112.269 137.315 112.386 137.491 112.533C137.667 112.68 137.803 112.837 137.898 113.006H137.942L137.898 112.214V109.464H138.822V118H137.942V117.186H137.898C137.803 117.355 137.667 117.516 137.491 117.67C137.315 117.824 137.106 117.945 136.864 118.033C136.63 118.128 136.366 118.176 136.072 118.176ZM136.171 117.329C136.523 117.329 136.831 117.245 137.095 117.076C137.359 116.907 137.565 116.658 137.711 116.328C137.865 115.991 137.942 115.584 137.942 115.107C137.942 114.623 137.865 114.216 137.711 113.886C137.565 113.556 137.359 113.307 137.095 113.138C136.831 112.969 136.523 112.885 136.171 112.885C135.827 112.885 135.519 112.969 135.247 113.138C134.983 113.307 134.778 113.556 134.631 113.886C134.485 114.216 134.411 114.623 134.411 115.107C134.411 115.584 134.485 115.991 134.631 116.328C134.778 116.658 134.983 116.907 135.247 117.076C135.519 117.245 135.827 117.329 136.171 117.329Z" fill="#3C4043"/>
<path id="File upload" d="M71.924 96.5V88.624H76.665V89.515H72.859V92.21H76.335V93.09H72.859V96.5H71.924ZM77.7861 96.5V90.714H78.7101V96.5H77.7861ZM78.2481 89.306C78.0648 89.306 77.9071 89.24 77.7751 89.108C77.6431 88.976 77.5771 88.8183 77.5771 88.635C77.5771 88.4443 77.6431 88.2867 77.7751 88.162C77.9071 88.03 78.0648 87.964 78.2481 87.964C78.4388 87.964 78.5965 88.03 78.7211 88.162C78.8531 88.2867 78.9191 88.4443 78.9191 88.635C78.9191 88.8183 78.8531 88.976 78.7211 89.108C78.5965 89.24 78.4388 89.306 78.2481 89.306ZM80.3001 96.5V87.964H81.2241V96.5H80.3001ZM85.1025 96.676C84.5598 96.676 84.0868 96.544 83.6835 96.28C83.2875 96.0087 82.9795 95.642 82.7595 95.18C82.5468 94.718 82.4405 94.1973 82.4405 93.618C82.4405 93.024 82.5505 92.496 82.7705 92.034C82.9978 91.5647 83.3095 91.198 83.7055 90.934C84.1088 90.67 84.5708 90.538 85.0915 90.538C85.6488 90.538 86.1182 90.648 86.4995 90.868C86.8882 91.088 87.1852 91.4033 87.3905 91.814C87.5958 92.2173 87.6985 92.7013 87.6985 93.266C87.6985 93.3613 87.6948 93.4567 87.6875 93.552C87.6875 93.64 87.6838 93.717 87.6765 93.783H83.3645C83.3792 94.179 83.4525 94.5237 83.5845 94.817C83.7312 95.147 83.9365 95.4 84.2005 95.576C84.4718 95.7447 84.7835 95.829 85.1355 95.829C85.5975 95.829 85.9458 95.7337 86.1805 95.543C86.4225 95.345 86.5985 95.092 86.7085 94.784L87.5225 95.004C87.4052 95.4733 87.1448 95.8693 86.7415 96.192C86.3455 96.5147 85.7992 96.676 85.1025 96.676ZM83.4085 93.013H86.7305C86.7232 92.7637 86.6828 92.54 86.6095 92.342C86.5435 92.1367 86.4408 91.9643 86.3015 91.825C86.1695 91.6783 86.0008 91.5683 85.7955 91.495C85.5975 91.4143 85.3628 91.374 85.0915 91.374C84.7468 91.374 84.4425 91.462 84.1785 91.638C83.9218 91.8067 83.7238 92.056 83.5845 92.386C83.5038 92.5693 83.4452 92.7783 83.4085 93.013ZM93.7527 96.676C93.1074 96.676 92.6087 96.4853 92.2567 96.104C91.9047 95.7227 91.7287 95.2057 91.7287 94.553V90.714H92.6527V94.432C92.6527 94.938 92.7774 95.2973 93.0267 95.51C93.2834 95.7227 93.5987 95.829 93.9727 95.829C94.2881 95.829 94.5557 95.7557 94.7757 95.609C94.9957 95.455 95.1644 95.2533 95.2817 95.004C95.4064 94.7547 95.4687 94.4833 95.4687 94.19V90.714H96.3927V96.5H95.5127V95.741H95.4687C95.3807 95.917 95.2524 96.0783 95.0837 96.225C94.9151 96.3643 94.7171 96.4743 94.4897 96.555C94.2624 96.6357 94.0167 96.676 93.7527 96.676ZM98.0032 98.876V90.714H98.8832V91.561H98.9272C99.0299 91.3777 99.1692 91.209 99.3452 91.055C99.5285 90.901 99.7412 90.7763 99.9832 90.681C100.233 90.5857 100.493 90.538 100.764 90.538C101.285 90.538 101.74 90.6663 102.128 90.923C102.517 91.1797 102.818 91.539 103.03 92.001C103.243 92.463 103.349 92.9983 103.349 93.607C103.349 94.2157 103.239 94.751 103.019 95.213C102.807 95.675 102.506 96.0343 102.117 96.291C101.736 96.5477 101.285 96.676 100.764 96.676C100.317 96.676 99.9355 96.5843 99.6202 96.401C99.3049 96.2103 99.0739 95.9903 98.9272 95.741H98.8832L98.9272 96.5V98.876H98.0032ZM100.665 95.829C101.01 95.829 101.314 95.7447 101.578 95.576C101.842 95.4073 102.048 95.158 102.194 94.828C102.348 94.4907 102.425 94.0837 102.425 93.607C102.425 93.123 102.348 92.716 102.194 92.386C102.048 92.056 101.842 91.8067 101.578 91.638C101.314 91.4693 101.01 91.385 100.665 91.385C100.321 91.385 100.013 91.4693 99.7412 91.638C99.4772 91.8067 99.2682 92.056 99.1142 92.386C98.9602 92.716 98.8832 93.123 98.8832 93.607C98.8832 94.0837 98.9602 94.4907 99.1142 94.828C99.2682 95.158 99.4772 95.4073 99.7412 95.576C100.013 95.7447 100.321 95.829 100.665 95.829ZM104.502 96.5V87.964H105.426V96.5H104.502ZM109.415 96.676C108.85 96.676 108.359 96.5477 107.941 96.291C107.53 96.027 107.211 95.664 106.984 95.202C106.756 94.74 106.643 94.2083 106.643 93.607C106.643 92.9983 106.756 92.4667 106.984 92.012C107.211 91.55 107.53 91.1907 107.941 90.934C108.359 90.67 108.85 90.538 109.415 90.538C109.979 90.538 110.467 90.67 110.878 90.934C111.288 91.1907 111.604 91.55 111.824 92.012C112.051 92.4667 112.165 92.9983 112.165 93.607C112.165 94.2083 112.051 94.74 111.824 95.202C111.604 95.664 111.288 96.027 110.878 96.291C110.467 96.5477 109.979 96.676 109.415 96.676ZM109.415 95.829C109.774 95.829 110.089 95.741 110.361 95.565C110.639 95.389 110.856 95.136 111.01 94.806C111.164 94.476 111.241 94.0763 111.241 93.607C111.241 93.1377 111.164 92.738 111.01 92.408C110.856 92.078 110.639 91.825 110.361 91.649C110.089 91.473 109.774 91.385 109.415 91.385C109.055 91.385 108.736 91.473 108.458 91.649C108.179 91.825 107.959 92.078 107.798 92.408C107.644 92.738 107.567 93.1377 107.567 93.607C107.567 94.0763 107.644 94.476 107.798 94.806C107.959 95.136 108.179 95.389 108.458 95.565C108.736 95.741 109.055 95.829 109.415 95.829ZM115.178 96.676C114.782 96.676 114.434 96.6027 114.133 96.456C113.832 96.3093 113.598 96.104 113.429 95.84C113.26 95.5687 113.176 95.2497 113.176 94.883C113.176 94.4943 113.275 94.1717 113.473 93.915C113.678 93.651 113.946 93.453 114.276 93.321C114.613 93.189 114.976 93.123 115.365 93.123C115.592 93.123 115.801 93.134 115.992 93.156C116.19 93.1707 116.377 93.1963 116.553 93.233C116.736 93.2697 116.912 93.3173 117.081 93.376V92.738C117.081 92.32 116.942 91.99 116.663 91.748C116.384 91.4987 116.029 91.374 115.596 91.374C115.215 91.374 114.899 91.462 114.65 91.638C114.401 91.8067 114.228 92.0597 114.133 92.397L113.297 92.188C113.363 91.8433 113.502 91.55 113.715 91.308C113.928 91.0587 114.195 90.868 114.518 90.736C114.848 90.604 115.207 90.538 115.596 90.538C116.351 90.538 116.934 90.7287 117.345 91.11C117.763 91.4913 117.972 92.0267 117.972 92.716V96.5H117.081V95.741H117.037C116.934 95.8877 116.799 96.0343 116.63 96.181C116.461 96.3277 116.256 96.445 116.014 96.533C115.779 96.6283 115.501 96.676 115.178 96.676ZM115.343 95.862C115.68 95.862 115.977 95.7887 116.234 95.642C116.498 95.4953 116.703 95.2937 116.85 95.037C117.004 94.773 117.081 94.4797 117.081 94.157C116.81 94.0543 116.549 93.981 116.3 93.937C116.051 93.893 115.794 93.871 115.53 93.871C115.112 93.871 114.771 93.9517 114.507 94.113C114.25 94.267 114.122 94.5237 114.122 94.883C114.122 95.1763 114.236 95.4147 114.463 95.598C114.698 95.774 114.991 95.862 115.343 95.862ZM121.699 96.676C121.179 96.676 120.724 96.5477 120.335 96.291C119.947 96.027 119.646 95.664 119.433 95.202C119.221 94.74 119.114 94.2083 119.114 93.607C119.114 92.9983 119.221 92.4667 119.433 92.012C119.646 91.55 119.943 91.1907 120.324 90.934C120.713 90.67 121.168 90.538 121.688 90.538C121.982 90.538 122.249 90.5857 122.491 90.681C122.733 90.769 122.942 90.8863 123.118 91.033C123.294 91.1797 123.43 91.3373 123.525 91.506H123.569L123.525 90.714V87.964H124.449V96.5H123.569V95.686H123.525C123.43 95.8547 123.294 96.016 123.118 96.17C122.942 96.324 122.733 96.445 122.491 96.533C122.257 96.6283 121.993 96.676 121.699 96.676ZM121.798 95.829C122.15 95.829 122.458 95.7447 122.722 95.576C122.986 95.4073 123.192 95.158 123.338 94.828C123.492 94.4907 123.569 94.0837 123.569 93.607C123.569 93.123 123.492 92.716 123.338 92.386C123.192 92.056 122.986 91.8067 122.722 91.638C122.458 91.4693 122.15 91.385 121.798 91.385C121.454 91.385 121.146 91.4693 120.874 91.638C120.61 91.8067 120.405 92.056 120.258 92.386C120.112 92.716 120.038 93.123 120.038 93.607C120.038 94.0837 120.112 94.4907 120.258 94.828C120.405 95.158 120.61 95.4073 120.874 95.576C121.146 95.7447 121.454 95.829 121.798 95.829Z" fill="#3C4043"/>
<g id="Search">
<g id="Search_2">
<rect x="108" y="15.5" width="186" height="27" rx="13.5" fill="white"/>
<rect x="108" y="15.5" width="186" height="27" rx="13.5" stroke="#BDC1C6"/>
<g id="search icon">
<circle id="Oval_4" cx="120.441" cy="28.032" r="4.94118" stroke="#BDC1C6"/>
<path id="Line 6" d="M124.323 31.9143L127.318 34.9091" stroke="#BDC1C6" stroke-linecap="square"/>
</g>
<g id="text">
<path id="text_2" d="M135.5 29H177.5" stroke="#BDC1C6" stroke-linecap="round" stroke-linejoin="round"/>
</g>
</g>
</g>
<g id="Drive icon - illustrated">
<g id="Group 85">
<rect id="white bg" x="21.7159" y="20.4393" width="15.5" height="15.4286" fill="white"/>
<g id="Group 6">
<g id="Group 5">
<path id="Triangle Copy" fill-rule="evenodd" clip-rule="evenodd" d="M19.2593 39.5493L23.4111 31.427H15.1075L19.2593 39.5493Z" fill="#1967D2"/>
<path id="Triangle Copy_2" fill-rule="evenodd" clip-rule="evenodd" d="M40.1864 38.5366L36.3023 32.1247L43.5078 31.9244L40.1864 38.5366Z" fill="#D93025"/>
<path id="Path 15" fill-rule="evenodd" clip-rule="evenodd" d="M34.2057 13.9643L30.054 21.2743L36.4115 31.8332L44.7223 31.7345L34.2057 13.9643Z" fill="#FBBC04"/>
<path id="Path 15_2" fill-rule="evenodd" clip-rule="evenodd" d="M40.1872 38.5366L36.3032 32.1247L22.5212 32.1247L19.1515 39.5492L40.1872 38.5366Z" fill="#4285F4"/>
<path id="Path 15_3" fill-rule="evenodd" clip-rule="evenodd" d="M25.6245 13.9643L29.7762 21.2743L23.4187 31.8332L15.1079 31.7345L25.6245 13.9643Z" fill="#34A853"/>
<path id="Triangle" fill-rule="evenodd" clip-rule="evenodd" d="M29.6133 22.0867L34.2052 13.9645H25.0713L29.6133 22.0867Z" fill="#188038"/>
<path id="Triangle_2" fill-rule="evenodd" clip-rule="evenodd" d="M29.7764 21.2743L37.0116 31.7152H22.5813L29.7764 21.2743Z" fill="white"/>
</g>
<path id="Triangle_3" d="M44.1951 31.4535L44.421 31.8382L40.2342 39.0492H18.5342L14.5764 31.8475L25.5678 13.5H33.6664C34.9593 15.7136 37.6066 20.2278 39.9685 24.2529C41.1955 26.3439 42.3456 28.3032 43.1889 29.7397L44.1951 31.4535Z" stroke="#3C4043" stroke-linejoin="round"/>
<path id="Line 13" d="M14.7216 31.9243H43.5073" stroke="#3C4043" stroke-linecap="square"/>
</g>
<path id="Line 14" d="M19.1501 38.5367L33.543 14.2918" stroke="#3C4043" stroke-linecap="square"/>
<path id="Line 14_2" d="M40.1867 38.5367L25.7938 14.2918" stroke="#3C4043" stroke-linecap="square"/>
</g>
</g>
</g>
<defs>
<clipPath id="clip0_2_28524">
<rect width="320" height="216" fill="white"/>
</clipPath>
</defs>
</svg>
